{
    "accessors": {
        "accessor_24": {
            "bufferView": "bufferView_38",
            "byteOffset": 0,
            "byteStride": 0,
            "componentType": 5123,
            "count": 65532,
            "type": "SCALAR"
        },
        "accessor_26": {
            "bufferView": "bufferView_39",
            "byteOffset": 0,
            "byteStride": 12,
            "componentType": 5126,
            "count": 65532,
            "max": [
                168.662,
                154.922,
                35.4293
            ],
            "min": [
                -193.737,
                -56.2773,
                0
            ],
            "type": "VEC3"
        },
        "accessor_28": {
            "bufferView": "bufferView_39",
            "byteOffset": 786384,
            "byteStride": 12,
            "componentType": 5126,
            "count": 65532,
            "max": [
                1,
                1,
                1
            ],
            "min": [
                -1,
                -1,
                -1
            ],
            "type": "VEC3"
        },
        "accessor_32": {
            "bufferView": "bufferView_38",
            "byteOffset": 131064,
            "byteStride": 0,
            "componentType": 5123,
            "count": 534,
            "type": "SCALAR"
        },
        "accessor_34": {
            "bufferView": "bufferView_39",
            "byteOffset": 1572768,
            "byteStride": 12,
            "componentType": 5126,
            "count": 534,
            "max": [
                168.662,
                -49.0773,
                14.3258
            ],
            "min": [
                -193.737,
                -53.8773,
                1.969
            ],
            "type": "VEC3"
        },
        "accessor_36": {
            "bufferView": "bufferView_39",
            "byteOffset": 1579176,
            "byteStride": 12,
            "componentType": 5126,
            "count": 534,
            "max": [
                0.376477,
                0.694861,
                1
            ],
            "min": [
                -0.694862,
                -0.191855,
                0.185297
            ],
            "type": "VEC3"
        }
    },
    "animations": {},
    "asset": {
        "generator": "collada2gltf@d78daf1e7950e6c22fe6bec1d07965e8a302e90d",
        "premultipliedAlpha": true,
        "profile": {
            "api": "WebGL",
            "version": "1.0.2"
        },
        "version": 1
    },
    "bufferViews": {
        "bufferView_38": {
            "buffer": "\\Daten\\test\\gltf_10\\Tiles\\0\\0\\244\\GMLID_TIN436865_187531_1154",
            "byteLength": 132132,
            "byteOffset": 0,
            "target": 34963
        },
        "bufferView_39": {
            "buffer": "\\Daten\\test\\gltf_10\\Tiles\\0\\0\\244\\GMLID_TIN436865_187531_1154",
            "byteLength": 1585584,
            "byteOffset": 132132,
            "target": 34962
        }
    },
    "buffers": {
        "\\Daten\\test\\gltf_10\\Tiles\\0\\0\\244\\GMLID_TIN436865_187531_1154": {
            "byteLength": 1717716,
            "type": "arraybuffer",
            "uri": "data:application/octet-stream;base64,"
        }
    },
    "materials": {
        "default_dc_r_0.658823549747467_g_0.772549033164978_b_0.0_sc_r_0.333333_g_0.333333_b_0_eff": {
            "name": "default_dc_r_0.658823549747467_g_0.772549033164978_b_0.0_sc_r_0.333333_g_0.333333_b_0_mat",
            "technique": "technique0",
            "values": {
                "diffuse": [
                    0.658824,
                    0.772549,
                    0,
                    1
                ],
                "emission": [
                    0,
                    0,
                    0,
                    1
                ]
            }
        }
    },
    "meshes": {
        "geometry0": {
            "name": "geometry0",
            "primitives": [
                {
                    "attributes": {
                        "NORMAL": "accessor_28",
                        "POSITION": "accessor_26"
                    },
                    "indices": "accessor_24",
                    "material": "default_dc_r_0.658823549747467_g_0.772549033164978_b_0.0_sc_r_0.333333_g_0.333333_b_0_eff",
                    "mode": 4
                }
            ]
        },
        "geometry0split_0": {
            "name": "geometry01",
            "primitives": [
                {
                    "attributes": {
                        "NORMAL": "accessor_36",
                        "POSITION": "accessor_34"
                    },
                    "indices": "accessor_32",
                    "material": "default_dc_r_0.658823549747467_g_0.772549033164978_b_0.0_sc_r_0.333333_g_0.333333_b_0_eff",
                    "mode": 4
                }
            ]
        }
    },
    "nodes": {
        "node_0": {
            "children": [],
            "matrix": [
                1,
                0,
                0,
                0,
                0,
                1,
                0,
                0,
                0,
                0,
                1,
                0,
                0,
                0,
                0,
                1
            ],
            "meshes": [
                "geometry0",
                "geometry0split_0"
            ],
            "name": ""
        },
        "node_1": {
            "children": [
                "node_0"
            ],
            "matrix": [
                1,
                0,
                0,
                0,
                0,
                0,
                -1,
                0,
                0,
                1,
                0,
                0,
                0,
                0,
                0,
                1
            ],
            "name": "Y_UP_Transform"
        }
    },
    "programs": {
        "program_0": {
            "attributes": [
                "a_normal",
                "a_position"
            ],
            "fragmentShader": "\\Daten\\test\\gltf_10\\Tiles\\0\\0\\244\\GMLID_TIN436865_187531_11540FS",
            "vertexShader": "\\Daten\\test\\gltf_10\\Tiles\\0\\0\\244\\GMLID_TIN436865_187531_11540VS"
        }
    },
    "scene": "defaultScene",
    "scenes": {
        "defaultScene": {
            "nodes": [
                "node_1"
            ]
        }
    },
    "shaders": {
        "\\Daten\\test\\gltf_10\\Tiles\\0\\0\\244\\GMLID_TIN436865_187531_11540FS": {
            "type": 35632,
            "uri": "data:text/plain;base64,"
        },
        "\\Daten\\test\\gltf_10\\Tiles\\0\\0\\244\\GMLID_TIN436865_187531_11540VS": {
            "type": 35633,
            "uri": "data:text/plain;base64,"
        }
    },
    "skins": {},
    "techniques": {
        "technique0": {
            "attributes": {
                "a_normal": "normal",
                "a_position": "position"
            },
            "parameters": {
                "diffuse": {
                    "type": 35666
                },
                "emission": {
                    "type": 35666
                },
                "modelViewMatrix": {
                    "semantic": "MODELVIEW",
                    "type": 35676
                },
                "normal": {
                    "semantic": "NORMAL",
                    "type": 35665
                },
                "normalMatrix": {
                    "semantic": "MODELVIEWINVERSETRANSPOSE",
                    "type": 35675
                },
                "position": {
                    "semantic": "POSITION",
                    "type": 35665
                },
                "projectionMatrix": {
                    "semantic": "PROJECTION",
                    "type": 35676
                }
            },
            "program": "program_0",
            "states": {
                "enable": [
                    2929
                ]
            },
            "uniforms": {
                "u_diffuse": "diffuse",
                "u_emission": "emission",
                "u_modelViewMatrix": "modelViewMatrix",
                "u_normalMatrix": "normalMatrix",
                "u_projectionMatrix": "projectionMatrix"
            }
        }
    }
}