{
    "accessors": {
        "accessor_49": {
            "bufferView": "bufferView_66",
            "byteOffset": 0,
            "byteStride": 0,
            "componentType": 5123,
            "count": 264,
            "type": "SCALAR"
        },
        "accessor_52": {
            "bufferView": "bufferView_66",
            "byteOffset": 528,
            "byteStride": 0,
            "componentType": 5123,
            "count": 5586,
            "type": "SCALAR"
        },
        "accessor_55": {
            "bufferView": "bufferView_66",
            "byteOffset": 11700,
            "byteStride": 0,
            "componentType": 5123,
            "count": 7962,
            "type": "SCALAR"
        },
        "accessor_58": {
            "bufferView": "bufferView_66",
            "byteOffset": 27624,
            "byteStride": 0,
            "componentType": 5123,
            "count": 12474,
            "type": "SCALAR"
        },
        "accessor_60": {
            "bufferView": "bufferView_67",
            "byteOffset": 0,
            "byteStride": 12,
            "componentType": 5126,
            "count": 14765,
            "max": [
                7.99387,
                1.07365,
                6.16554
            ],
            "min": [
                -23.7564,
                -2.983,
                0
            ],
            "type": "VEC3"
        },
        "accessor_62": {
            "bufferView": "bufferView_67",
            "byteOffset": 177180,
            "byteStride": 12,
            "componentType": 5126,
            "count": 14765,
            "max": [
                1,
                0.966137,
                0.966138
            ],
            "min": [
                -1,
                -0.966137,
                -0.966138
            ],
            "type": "VEC3"
        },
        "accessor_64": {
            "bufferView": "bufferView_67",
            "byteOffset": 354360,
            "byteStride": 8,
            "componentType": 5126,
            "count": 14765,
            "max": [
                168.551,
                80.4837
            ],
            "min": [
                -168.551,
                -168.967
            ],
            "type": "VEC2"
        }
    },
    "animations": {},
    "asset": {
        "generator": "collada2gltf@d78daf1e7950e6c22fe6bec1d07965e8a302e90d",
        "premultipliedAlpha": true,
        "profile": {
            "api": "WebGL",
            "version": "1.0.2"
        },
        "version": 1
    },
    "bufferViews": {
        "bufferView_66": {
            "buffer": "\\Daten\\test\\gltf_10\\Tiles\\0\\0\\240\\GMLID_0574825_29536_285",
            "byteLength": 52572,
            "byteOffset": 0,
            "target": 34963
        },
        "bufferView_67": {
            "buffer": "\\Daten\\test\\gltf_10\\Tiles\\0\\0\\240\\GMLID_0574825_29536_285",
            "byteLength": 472480,
            "byteOffset": 52572,
            "target": 34962
        }
    },
    "buffers": {
        "\\Daten\\test\\gltf_10\\Tiles\\0\\0\\240\\GMLID_0574825_29536_285": {
            "byteLength": 525052,
            "type": "arraybuffer",
            "uri": "data:application/octet-stream;base64,"
        }
    },
    "images": {
        "_asphalt_new_img": {
            "name": "_asphalt_new_img",
            "uri": "_asphalt_new.jpeg"
        },
        "_metal_panel_img": {
            "name": "_metal_panel_img",
            "uri": "_metal_panel.jpeg"
        },
        "_metal_rusted_img": {
            "name": "_metal_rusted_img",
            "uri": "_metal_rusted.jpeg"
        }
    },
    "materials": {
        "_asphalt_new_eff": {
            "name": "_asphalt_new_mat",
            "technique": "technique0",
            "values": {
                "diffuse": "texture__asphalt_new_img",
                "emission": [
                    0,
                    0,
                    0,
                    1
                ]
            }
        },
        "_metal_panel_eff": {
            "name": "_metal_panel_mat",
            "technique": "technique0",
            "values": {
                "diffuse": "texture__metal_panel_img",
                "emission": [
                    0,
                    0,
                    0,
                    1
                ]
            }
        },
        "_metal_rusted_eff": {
            "name": "_metal_rusted_mat",
            "technique": "technique0",
            "values": {
                "diffuse": "texture__metal_rusted_img",
                "emission": [
                    0,
                    0,
                    0,
                    1
                ]
            }
        },
        "default_tr_0.0_dc_r_0.99609375_g_0.0_b_0.0_sc_r_1.0_g_1.0_b_1.0_ec_r_0.0_g_0.0_b_0_eff": {
            "name": "default_tr_0.0_dc_r_0.99609375_g_0.0_b_0.0_sc_r_1.0_g_1.0_b_1.0_ec_r_0.0_g_0.0_b_0_mat",
            "technique": "technique1",
            "values": {
                "diffuse": [
                    0.996094,
                    0,
                    0,
                    1
                ],
                "emission": [
                    0,
                    0,
                    0,
                    1
                ]
            }
        }
    },
    "meshes": {
        "geometry0": {
            "name": "geometry0",
            "primitives": [
                {
                    "attributes": {
                        "NORMAL": "accessor_62",
                        "POSITION": "accessor_60"
                    },
                    "indices": "accessor_49",
                    "material": "default_tr_0.0_dc_r_0.99609375_g_0.0_b_0.0_sc_r_1.0_g_1.0_b_1.0_ec_r_0.0_g_0.0_b_0_eff",
                    "mode": 4
                },
                {
                    "attributes": {
                        "POSITION": "accessor_60",
                        "TEXCOORD_0": "accessor_64"
                    },
                    "indices": "accessor_52",
                    "material": "_metal_rusted_eff",
                    "mode": 4
                },
                {
                    "attributes": {
                        "POSITION": "accessor_60",
                        "TEXCOORD_0": "accessor_64"
                    },
                    "indices": "accessor_55",
                    "material": "_asphalt_new_eff",
                    "mode": 4
                },
                {
                    "attributes": {
                        "POSITION": "accessor_60",
                        "TEXCOORD_0": "accessor_64"
                    },
                    "indices": "accessor_58",
                    "material": "_metal_panel_eff",
                    "mode": 4
                }
            ]
        }
    },
    "nodes": {
        "node_0": {
            "children": [],
            "matrix": [
                1,
                0,
                0,
                0,
                0,
                1,
                0,
                0,
                0,
                0,
                1,
                0,
                0,
                0,
                0,
                1
            ],
            "meshes": [
                "geometry0"
            ],
            "name": ""
        },
        "node_1": {
            "children": [
                "node_0"
            ],
            "matrix": [
                1,
                0,
                0,
                0,
                0,
                0,
                -1,
                0,
                0,
                1,
                0,
                0,
                0,
                0,
                0,
                1
            ],
            "name": "Y_UP_Transform"
        }
    },
    "programs": {
        "program_0": {
            "attributes": [
                "a_position",
                "a_texcoord0"
            ],
            "fragmentShader": "\\Daten\\test\\gltf_10\\Tiles\\0\\0\\240\\GMLID_0574825_29536_2850FS",
            "vertexShader": "\\Daten\\test\\gltf_10\\Tiles\\0\\0\\240\\GMLID_0574825_29536_2850VS"
        },
        "program_1": {
            "attributes": [
                "a_normal",
                "a_position"
            ],
            "fragmentShader": "\\Daten\\test\\gltf_10\\Tiles\\0\\0\\240\\GMLID_0574825_29536_2851FS",
            "vertexShader": "\\Daten\\test\\gltf_10\\Tiles\\0\\0\\240\\GMLID_0574825_29536_2851VS"
        }
    },
    "samplers": {
        "sampler_0": {
            "magFilter": 9729,
            "minFilter": 9729,
            "wrapS": 10497,
            "wrapT": 10497
        }
    },
    "scene": "defaultScene",
    "scenes": {
        "defaultScene": {
            "nodes": [
                "node_1"
            ]
        }
    },
    "shaders": {
        "\\Daten\\test\\gltf_10\\Tiles\\0\\0\\240\\GMLID_0574825_29536_2850FS": {
            "type": 35632,
            "uri": "data:text/plain;base64,"
        },
        "\\Daten\\test\\gltf_10\\Tiles\\0\\0\\240\\GMLID_0574825_29536_2850VS": {
            "type": 35633,
            "uri": "data:text/plain;base64,"
        },
        "\\Daten\\test\\gltf_10\\Tiles\\0\\0\\240\\GMLID_0574825_29536_2851FS": {
            "type": 35632,
            "uri": "data:text/plain;base64,"
        },
        "\\Daten\\test\\gltf_10\\Tiles\\0\\0\\240\\GMLID_0574825_29536_2851VS": {
            "type": 35633,
            "uri": "data:text/plain;base64,"
        }
    },
    "skins": {},
    "techniques": {
        "technique0": {
            "attributes": {
                "a_position": "position",
                "a_texcoord0": "texcoord0"
            },
            "parameters": {
                "diffuse": {
                    "type": 35678
                },
                "emission": {
                    "type": 35666
                },
                "modelViewMatrix": {
                    "semantic": "MODELVIEW",
                    "type": 35676
                },
                "position": {
                    "semantic": "POSITION",
                    "type": 35665
                },
                "projectionMatrix": {
                    "semantic": "PROJECTION",
                    "type": 35676
                },
                "texcoord0": {
                    "semantic": "TEXCOORD_0",
                    "type": 35664
                }
            },
            "program": "program_0",
            "states": {
                "enable": [
                    2929
                ]
            },
            "uniforms": {
                "u_diffuse": "diffuse",
                "u_emission": "emission",
                "u_modelViewMatrix": "modelViewMatrix",
                "u_projectionMatrix": "projectionMatrix"
            }
        },
        "technique1": {
            "attributes": {
                "a_normal": "normal",
                "a_position": "position"
            },
            "parameters": {
                "diffuse": {
                    "type": 35666
                },
                "emission": {
                    "type": 35666
                },
                "modelViewMatrix": {
                    "semantic": "MODELVIEW",
                    "type": 35676
                },
                "normal": {
                    "semantic": "NORMAL",
                    "type": 35665
                },
                "normalMatrix": {
                    "semantic": "MODELVIEWINVERSETRANSPOSE",
                    "type": 35675
                },
                "position": {
                    "semantic": "POSITION",
                    "type": 35665
                },
                "projectionMatrix": {
                    "semantic": "PROJECTION",
                    "type": 35676
                }
            },
            "program": "program_1",
            "states": {
                "enable": [
                    2929
                ]
            },
            "uniforms": {
                "u_diffuse": "diffuse",
                "u_emission": "emission",
                "u_modelViewMatrix": "modelViewMatrix",
                "u_normalMatrix": "normalMatrix",
                "u_projectionMatrix": "projectionMatrix"
            }
        }
    },
    "textures": {
        "texture__asphalt_new_img": {
            "format": 6408,
            "internalFormat": 6408,
            "sampler": "sampler_0",
            "source": "_asphalt_new_img",
            "target": 3553,
            "type": 5121
        },
        "texture__metal_panel_img": {
            "format": 6408,
            "internalFormat": 6408,
            "sampler": "sampler_0",
            "source": "_metal_panel_img",
            "target": 3553,
            "type": 5121
        },
        "texture__metal_rusted_img": {
            "format": 6408,
            "internalFormat": 6408,
            "sampler": "sampler_0",
            "source": "_metal_rusted_img",
            "target": 3553,
            "type": 5121
        }
    }
}