{
    "accessors": {
        "accessor_73": {
            "bufferView": "bufferView_96",
            "byteOffset": 0,
            "byteStride": 0,
            "componentType": 5123,
            "count": 1158,
            "type": "SCALAR"
        },
        "accessor_76": {
            "bufferView": "bufferView_96",
            "byteOffset": 2316,
            "byteStride": 0,
            "componentType": 5123,
            "count": 144,
            "type": "SCALAR"
        },
        "accessor_79": {
            "bufferView": "bufferView_96",
            "byteOffset": 2604,
            "byteStride": 0,
            "componentType": 5123,
            "count": 150,
            "type": "SCALAR"
        },
        "accessor_82": {
            "bufferView": "bufferView_96",
            "byteOffset": 2904,
            "byteStride": 0,
            "componentType": 5123,
            "count": 498,
            "type": "SCALAR"
        },
        "accessor_85": {
            "bufferView": "bufferView_96",
            "byteOffset": 3900,
            "byteStride": 0,
            "componentType": 5123,
            "count": 24,
            "type": "SCALAR"
        },
        "accessor_88": {
            "bufferView": "bufferView_96",
            "byteOffset": 3948,
            "byteStride": 0,
            "componentType": 5123,
            "count": 60,
            "type": "SCALAR"
        },
        "accessor_90": {
            "bufferView": "bufferView_97",
            "byteOffset": 0,
            "byteStride": 12,
            "componentType": 5126,
            "count": 972,
            "max": [
                27.5623,
                7.27703,
                10.5645
            ],
            "min": [
                -0.714419,
                -9.34845,
                0
            ],
            "type": "VEC3"
        },
        "accessor_92": {
            "bufferView": "bufferView_97",
            "byteOffset": 11664,
            "byteStride": 12,
            "componentType": 5126,
            "count": 972,
            "max": [
                0.965647,
                0.965926,
                1
            ],
            "min": [
                -0.965647,
                -0.965926,
                -1
            ],
            "type": "VEC3"
        },
        "accessor_94": {
            "bufferView": "bufferView_97",
            "byteOffset": 23328,
            "byteStride": 8,
            "componentType": 5126,
            "count": 972,
            "max": [
                715.587,
                64.4459
            ],
            "min": [
                -715.587,
                -781.759
            ],
            "type": "VEC2"
        }
    },
    "animations": {},
    "asset": {
        "generator": "collada2gltf@d78daf1e7950e6c22fe6bec1d07965e8a302e90d",
        "premultipliedAlpha": true,
        "profile": {
            "api": "WebGL",
            "version": "1.0.2"
        },
        "version": 1
    },
    "bufferViews": {
        "bufferView_96": {
            "buffer": "\\Daten\\test\\gltf_10\\Tiles\\0\\0\\17\\GMLID_BUI184698_512_898",
            "byteLength": 4068,
            "byteOffset": 0,
            "target": 34963
        },
        "bufferView_97": {
            "buffer": "\\Daten\\test\\gltf_10\\Tiles\\0\\0\\17\\GMLID_BUI184698_512_898",
            "byteLength": 31104,
            "byteOffset": 4068,
            "target": 34962
        }
    },
    "buffers": {
        "\\Daten\\test\\gltf_10\\Tiles\\0\\0\\17\\GMLID_BUI184698_512_898": {
            "byteLength": 35172,
            "type": "arraybuffer",
            "uri": "data:application/octet-stream;base64,"
        }
    },
    "images": {
        "_brick-station-kit_img": {
            "name": "_brick-station-kit_img",
            "uri": "_brick-station-kit.jpeg"
        },
        "_metal-sheet-kit_img": {
            "name": "_metal-sheet-kit_img",
            "uri": "_metal-sheet-kit.jpeg"
        },
        "_roof-station-kit_img": {
            "name": "_roof-station-kit_img",
            "uri": "_roof-station-kit.jpeg"
        }
    },
    "materials": {
        "_brick-station-kit_eff": {
            "name": "_brick-station-kit_mat",
            "technique": "technique0",
            "values": {
                "diffuse": "texture__brick-station-kit_img",
                "emission": [
                    0,
                    0,
                    0,
                    1
                ]
            }
        },
        "_metal-sheet-kit_eff": {
            "name": "_metal-sheet-kit_mat",
            "technique": "technique0",
            "values": {
                "diffuse": "texture__metal-sheet-kit_img",
                "emission": [
                    0,
                    0,
                    0,
                    1
                ]
            }
        },
        "_roof-station-kit_eff": {
            "name": "_roof-station-kit_mat",
            "technique": "technique0",
            "values": {
                "diffuse": "texture__roof-station-kit_img",
                "emission": [
                    0,
                    0,
                    0,
                    1
                ]
            }
        },
        "default_ai_0.2_sh_0.2_tr_0.21568627450980393_dc_r_0.8_g_0.8_b_0.8_sc_r_1.0_g_1.0_b_1.0_ec_r_0.0_g_0.0_b_0_eff": {
            "name": "default_ai_0.2_sh_0.2_tr_0.21568627450980393_dc_r_0.8_g_0.8_b_0.8_sc_r_1.0_g_1.0_b_1.0_ec_r_0.0_g_0.0_b_0_mat",
            "technique": "technique1",
            "values": {
                "diffuse": [
                    0.8,
                    0.8,
                    0.8,
                    1
                ],
                "emission": [
                    0,
                    0,
                    0,
                    1
                ],
                "transparency": 0.784314
            }
        },
        "default_tr_0.0_dc_r_0.19921875_g_0.19921875_b_0.19921875_sc_r_1.0_g_1.0_b_1.0_ec_r_0.0_g_0.0_b_0_eff": {
            "name": "default_tr_0.0_dc_r_0.19921875_g_0.19921875_b_0.19921875_sc_r_1.0_g_1.0_b_1.0_ec_r_0.0_g_0.0_b_0_mat",
            "technique": "technique2",
            "values": {
                "diffuse": [
                    0.199219,
                    0.199219,
                    0.199219,
                    1
                ],
                "emission": [
                    0,
                    0,
                    0,
                    1
                ]
            }
        },
        "default_tr_0.0_dc_r_0.296875_g_0.19921875_b_0.1484375_sc_r_1.0_g_1.0_b_1.0_ec_r_0.0_g_0.0_b_0_eff": {
            "name": "default_tr_0.0_dc_r_0.296875_g_0.19921875_b_0.1484375_sc_r_1.0_g_1.0_b_1.0_ec_r_0.0_g_0.0_b_0_mat",
            "technique": "technique2",
            "values": {
                "diffuse": [
                    0.296875,
                    0.199219,
                    0.148438,
                    1
                ],
                "emission": [
                    0,
                    0,
                    0,
                    1
                ]
            }
        }
    },
    "meshes": {
        "geometry0": {
            "name": "geometry0",
            "primitives": [
                {
                    "attributes": {
                        "NORMAL": "accessor_92",
                        "POSITION": "accessor_90"
                    },
                    "indices": "accessor_73",
                    "material": "default_tr_0.0_dc_r_0.296875_g_0.19921875_b_0.1484375_sc_r_1.0_g_1.0_b_1.0_ec_r_0.0_g_0.0_b_0_eff",
                    "mode": 4
                },
                {
                    "attributes": {
                        "NORMAL": "accessor_92",
                        "POSITION": "accessor_90"
                    },
                    "indices": "accessor_76",
                    "material": "default_tr_0.0_dc_r_0.19921875_g_0.19921875_b_0.19921875_sc_r_1.0_g_1.0_b_1.0_ec_r_0.0_g_0.0_b_0_eff",
                    "mode": 4
                },
                {
                    "attributes": {
                        "NORMAL": "accessor_92",
                        "POSITION": "accessor_90"
                    },
                    "indices": "accessor_79",
                    "material": "default_ai_0.2_sh_0.2_tr_0.21568627450980393_dc_r_0.8_g_0.8_b_0.8_sc_r_1.0_g_1.0_b_1.0_ec_r_0.0_g_0.0_b_0_eff",
                    "mode": 4
                },
                {
                    "attributes": {
                        "POSITION": "accessor_90",
                        "TEXCOORD_0": "accessor_94"
                    },
                    "indices": "accessor_82",
                    "material": "_brick-station-kit_eff",
                    "mode": 4
                },
                {
                    "attributes": {
                        "POSITION": "accessor_90",
                        "TEXCOORD_0": "accessor_94"
                    },
                    "indices": "accessor_85",
                    "material": "_metal-sheet-kit_eff",
                    "mode": 4
                },
                {
                    "attributes": {
                        "POSITION": "accessor_90",
                        "TEXCOORD_0": "accessor_94"
                    },
                    "indices": "accessor_88",
                    "material": "_roof-station-kit_eff",
                    "mode": 4
                }
            ]
        }
    },
    "nodes": {
        "node_0": {
            "children": [],
            "matrix": [
                1,
                0,
                0,
                0,
                0,
                1,
                0,
                0,
                0,
                0,
                1,
                0,
                0,
                0,
                0,
                1
            ],
            "meshes": [
                "geometry0"
            ],
            "name": ""
        },
        "node_1": {
            "children": [
                "node_0"
            ],
            "matrix": [
                1,
                0,
                0,
                0,
                0,
                0,
                -1,
                0,
                0,
                1,
                0,
                0,
                0,
                0,
                0,
                1
            ],
            "name": "Y_UP_Transform"
        }
    },
    "programs": {
        "program_0": {
            "attributes": [
                "a_position",
                "a_texcoord0"
            ],
            "fragmentShader": "\\Daten\\test\\gltf_10\\Tiles\\0\\0\\17\\GMLID_BUI184698_512_8980FS",
            "vertexShader": "\\Daten\\test\\gltf_10\\Tiles\\0\\0\\17\\GMLID_BUI184698_512_8980VS"
        },
        "program_1": {
            "attributes": [
                "a_normal",
                "a_position"
            ],
            "fragmentShader": "\\Daten\\test\\gltf_10\\Tiles\\0\\0\\17\\GMLID_BUI184698_512_8981FS",
            "vertexShader": "\\Daten\\test\\gltf_10\\Tiles\\0\\0\\17\\GMLID_BUI184698_512_8981VS"
        },
        "program_2": {
            "attributes": [
                "a_normal",
                "a_position"
            ],
            "fragmentShader": "\\Daten\\test\\gltf_10\\Tiles\\0\\0\\17\\GMLID_BUI184698_512_8982FS",
            "vertexShader": "\\Daten\\test\\gltf_10\\Tiles\\0\\0\\17\\GMLID_BUI184698_512_8982VS"
        }
    },
    "samplers": {
        "sampler_0": {
            "magFilter": 9729,
            "minFilter": 9729,
            "wrapS": 10497,
            "wrapT": 10497
        }
    },
    "scene": "defaultScene",
    "scenes": {
        "defaultScene": {
            "nodes": [
                "node_1"
            ]
        }
    },
    "shaders": {
        "\\Daten\\test\\gltf_10\\Tiles\\0\\0\\17\\GMLID_BUI184698_512_8980FS": {
            "type": 35632,
            "uri": "data:text/plain;base64,"
        },
        "\\Daten\\test\\gltf_10\\Tiles\\0\\0\\17\\GMLID_BUI184698_512_8980VS": {
            "type": 35633,
            "uri": "data:text/plain;base64,"
        },
        "\\Daten\\test\\gltf_10\\Tiles\\0\\0\\17\\GMLID_BUI184698_512_8981FS": {
            "type": 35632,
            "uri": "data:text/plain;base64,"
        },
        "\\Daten\\test\\gltf_10\\Tiles\\0\\0\\17\\GMLID_BUI184698_512_8981VS": {
            "type": 35633,
            "uri": "data:text/plain;base64,"
        },
        "\\Daten\\test\\gltf_10\\Tiles\\0\\0\\17\\GMLID_BUI184698_512_8982FS": {
            "type": 35632,
            "uri": "data:text/plain;base64,"
        },
        "\\Daten\\test\\gltf_10\\Tiles\\0\\0\\17\\GMLID_BUI184698_512_8982VS": {
            "type": 35633,
            "uri": "data:text/plain;base64,"
        }
    },
    "skins": {},
    "techniques": {
        "technique0": {
            "attributes": {
                "a_position": "position",
                "a_texcoord0": "texcoord0"
            },
            "parameters": {
                "diffuse": {
                    "type": 35678
                },
                "emission": {
                    "type": 35666
                },
                "modelViewMatrix": {
                    "semantic": "MODELVIEW",
                    "type": 35676
                },
                "position": {
                    "semantic": "POSITION",
                    "type": 35665
                },
                "projectionMatrix": {
                    "semantic": "PROJECTION",
                    "type": 35676
                },
                "texcoord0": {
                    "semantic": "TEXCOORD_0",
                    "type": 35664
                }
            },
            "program": "program_0",
            "states": {
                "enable": [
                    2929
                ]
            },
            "uniforms": {
                "u_diffuse": "diffuse",
                "u_emission": "emission",
                "u_modelViewMatrix": "modelViewMatrix",
                "u_projectionMatrix": "projectionMatrix"
            }
        },
        "technique1": {
            "attributes": {
                "a_normal": "normal",
                "a_position": "position"
            },
            "parameters": {
                "diffuse": {
                    "type": 35666
                },
                "emission": {
                    "type": 35666
                },
                "modelViewMatrix": {
                    "semantic": "MODELVIEW",
                    "type": 35676
                },
                "normal": {
                    "semantic": "NORMAL",
                    "type": 35665
                },
                "normalMatrix": {
                    "semantic": "MODELVIEWINVERSETRANSPOSE",
                    "type": 35675
                },
                "position": {
                    "semantic": "POSITION",
                    "type": 35665
                },
                "projectionMatrix": {
                    "semantic": "PROJECTION",
                    "type": 35676
                },
                "transparency": {
                    "type": 5126
                }
            },
            "program": "program_1",
            "states": {
                "enable": [
                    2929,
                    3042
                ],
                "functions": {
                    "blendEquationSeparate": [
                        32774,
                        32774
                    ],
                    "blendFuncSeparate": [
                        1,
                        771,
                        1,
                        771
                    ],
                    "depthMask": false
                }
            },
            "uniforms": {
                "u_diffuse": "diffuse",
                "u_emission": "emission",
                "u_modelViewMatrix": "modelViewMatrix",
                "u_normalMatrix": "normalMatrix",
                "u_projectionMatrix": "projectionMatrix",
                "u_transparency": "transparency"
            }
        },
        "technique2": {
            "attributes": {
                "a_normal": "normal",
                "a_position": "position"
            },
            "parameters": {
                "diffuse": {
                    "type": 35666
                },
                "emission": {
                    "type": 35666
                },
                "modelViewMatrix": {
                    "semantic": "MODELVIEW",
                    "type": 35676
                },
                "normal": {
                    "semantic": "NORMAL",
                    "type": 35665
                },
                "normalMatrix": {
                    "semantic": "MODELVIEWINVERSETRANSPOSE",
                    "type": 35675
                },
                "position": {
                    "semantic": "POSITION",
                    "type": 35665
                },
                "projectionMatrix": {
                    "semantic": "PROJECTION",
                    "type": 35676
                }
            },
            "program": "program_2",
            "states": {
                "enable": [
                    2929
                ]
            },
            "uniforms": {
                "u_diffuse": "diffuse",
                "u_emission": "emission",
                "u_modelViewMatrix": "modelViewMatrix",
                "u_normalMatrix": "normalMatrix",
                "u_projectionMatrix": "projectionMatrix"
            }
        }
    },
    "textures": {
        "texture__brick-station-kit_img": {
            "format": 6408,
            "internalFormat": 6408,
            "sampler": "sampler_0",
            "source": "_brick-station-kit_img",
            "target": 3553,
            "type": 5121
        },
        "texture__metal-sheet-kit_img": {
            "format": 6408,
            "internalFormat": 6408,
            "sampler": "sampler_0",
            "source": "_metal-sheet-kit_img",
            "target": 3553,
            "type": 5121
        },
        "texture__roof-station-kit_img": {
            "format": 6408,
            "internalFormat": 6408,
            "sampler": "sampler_0",
            "source": "_roof-station-kit_img",
            "target": 3553,
            "type": 5121
        }
    }
}