{
    "accessors": {
        "accessor_15": {
            "bufferView": "bufferView_21",
            "byteOffset": 0,
            "byteStride": 0,
            "componentType": 5123,
            "count": 417,
            "type": "SCALAR"
        },
        "accessor_17": {
            "bufferView": "bufferView_22",
            "byteOffset": 0,
            "byteStride": 12,
            "componentType": 5126,
            "count": 272,
            "max": [
                2.64834,
                0.696313,
                0.45
            ],
            "min": [
                -0.351658,
                -0.803687,
                0
            ],
            "type": "VEC3"
        },
        "accessor_19": {
            "bufferView": "bufferView_22",
            "byteOffset": 3264,
            "byteStride": 8,
            "componentType": 5126,
            "count": 272,
            "max": [
                0.0519466,
                1.01746
            ],
            "min": [
                -0.0519466,
                0.965923
            ],
            "type": "VEC2"
        }
    },
    "animations": {},
    "asset": {
        "generator": "collada2gltf@d78daf1e7950e6c22fe6bec1d07965e8a302e90d",
        "premultipliedAlpha": true,
        "profile": {
            "api": "WebGL",
            "version": "1.0.2"
        },
        "version": 1
    },
    "bufferViews": {
        "bufferView_21": {
            "buffer": "\\Daten\\test\\gltf_10\\Tiles\\0\\0\\122\\GMLID_0598627_75956_700",
            "byteLength": 836,
            "byteOffset": 0,
            "target": 34963
        },
        "bufferView_22": {
            "buffer": "\\Daten\\test\\gltf_10\\Tiles\\0\\0\\122\\GMLID_0598627_75956_700",
            "byteLength": 5440,
            "byteOffset": 836,
            "target": 34962
        }
    },
    "buffers": {
        "\\Daten\\test\\gltf_10\\Tiles\\0\\0\\122\\GMLID_0598627_75956_700": {
            "byteLength": 6276,
            "type": "arraybuffer",
            "uri": "data:application/octet-stream;base64,"
        }
    },
    "images": {
        "_wood_cherry_original_img": {
            "name": "_wood_cherry_original_img",
            "uri": "_wood_cherry_original.jpg"
        }
    },
    "materials": {
        "_wood_cherry_original_eff": {
            "name": "_wood_cherry_original_mat",
            "technique": "technique0",
            "values": {
                "diffuse": "texture__wood_cherry_original_img",
                "emission": [
                    0,
                    0,
                    0,
                    1
                ]
            }
        }
    },
    "meshes": {
        "geometry0": {
            "name": "geometry0",
            "primitives": [
                {
                    "attributes": {
                        "POSITION": "accessor_17",
                        "TEXCOORD_0": "accessor_19"
                    },
                    "indices": "accessor_15",
                    "material": "_wood_cherry_original_eff",
                    "mode": 4
                }
            ]
        }
    },
    "nodes": {
        "node_0": {
            "children": [],
            "matrix": [
                1,
                0,
                0,
                0,
                0,
                1,
                0,
                0,
                0,
                0,
                1,
                0,
                0,
                0,
                0,
                1
            ],
            "meshes": [
                "geometry0"
            ],
            "name": ""
        },
        "node_1": {
            "children": [
                "node_0"
            ],
            "matrix": [
                1,
                0,
                0,
                0,
                0,
                0,
                -1,
                0,
                0,
                1,
                0,
                0,
                0,
                0,
                0,
                1
            ],
            "name": "Y_UP_Transform"
        }
    },
    "programs": {
        "program_0": {
            "attributes": [
                "a_position",
                "a_texcoord0"
            ],
            "fragmentShader": "\\Daten\\test\\gltf_10\\Tiles\\0\\0\\122\\GMLID_0598627_75956_7000FS",
            "vertexShader": "\\Daten\\test\\gltf_10\\Tiles\\0\\0\\122\\GMLID_0598627_75956_7000VS"
        }
    },
    "samplers": {
        "sampler_0": {
            "magFilter": 9729,
            "minFilter": 9729,
            "wrapS": 10497,
            "wrapT": 10497
        }
    },
    "scene": "defaultScene",
    "scenes": {
        "defaultScene": {
            "nodes": [
                "node_1"
            ]
        }
    },
    "shaders": {
        "\\Daten\\test\\gltf_10\\Tiles\\0\\0\\122\\GMLID_0598627_75956_7000FS": {
            "type": 35632,
            "uri": "data:text/plain;base64,"
        },
        "\\Daten\\test\\gltf_10\\Tiles\\0\\0\\122\\GMLID_0598627_75956_7000VS": {
            "type": 35633,
            "uri": "data:text/plain;base64,"
        }
    },
    "skins": {},
    "techniques": {
        "technique0": {
            "attributes": {
                "a_position": "position",
                "a_texcoord0": "texcoord0"
            },
            "parameters": {
                "diffuse": {
                    "type": 35678
                },
                "emission": {
                    "type": 35666
                },
                "modelViewMatrix": {
                    "semantic": "MODELVIEW",
                    "type": 35676
                },
                "position": {
                    "semantic": "POSITION",
                    "type": 35665
                },
                "projectionMatrix": {
                    "semantic": "PROJECTION",
                    "type": 35676
                },
                "texcoord0": {
                    "semantic": "TEXCOORD_0",
                    "type": 35664
                }
            },
            "program": "program_0",
            "states": {
                "enable": [
                    2929
                ]
            },
            "uniforms": {
                "u_diffuse": "diffuse",
                "u_emission": "emission",
                "u_modelViewMatrix": "modelViewMatrix",
                "u_projectionMatrix": "projectionMatrix"
            }
        }
    },
    "textures": {
        "texture__wood_cherry_original_img": {
            "format": 6408,
            "internalFormat": 6408,
            "sampler": "sampler_0",
            "source": "_wood_cherry_original_img",
            "target": 3553,
            "type": 5121
        }
    }
}