{
    "accessors": {
        "accessor_27": {
            "bufferView": "bufferView_38",
            "byteOffset": 0,
            "byteStride": 0,
            "componentType": 5123,
            "count": 4827,
            "type": "SCALAR"
        },
        "accessor_30": {
            "bufferView": "bufferView_38",
            "byteOffset": 9654,
            "byteStride": 0,
            "componentType": 5123,
            "count": 312,
            "type": "SCALAR"
        },
        "accessor_32": {
            "bufferView": "bufferView_39",
            "byteOffset": 0,
            "byteStride": 12,
            "componentType": 5126,
            "count": 4933,
            "max": [
                57.5999,
                31.1999,
                12.6
            ],
            "min": [
                -40.7999,
                -28.7999,
                0
            ],
            "type": "VEC3"
        },
        "accessor_34": {
            "bufferView": "bufferView_39",
            "byteOffset": 59196,
            "byteStride": 12,
            "componentType": 5126,
            "count": 4933,
            "max": [
                0.800133,
                0.851638,
                1
            ],
            "min": [
                -0.800133,
                -0.893033,
                0
            ],
            "type": "VEC3"
        },
        "accessor_36": {
            "bufferView": "bufferView_39",
            "byteOffset": 118392,
            "byteStride": 8,
            "componentType": 5126,
            "count": 4933,
            "max": [
                2.46719,
                1
            ],
            "min": [
                0,
                -0.758526
            ],
            "type": "VEC2"
        }
    },
    "animations": {},
    "asset": {
        "generator": "collada2gltf@d78daf1e7950e6c22fe6bec1d07965e8a302e90d",
        "premultipliedAlpha": true,
        "profile": {
            "api": "WebGL",
            "version": "1.0.2"
        },
        "version": 1
    },
    "bufferViews": {
        "bufferView_38": {
            "buffer": "\\Daten\\test\\gltf_10\\Tiles\\0\\0\\127\\GMLID_0314272_32937_848",
            "byteLength": 10280,
            "byteOffset": 0,
            "target": 34963
        },
        "bufferView_39": {
            "buffer": "\\Daten\\test\\gltf_10\\Tiles\\0\\0\\127\\GMLID_0314272_32937_848",
            "byteLength": 157856,
            "byteOffset": 10280,
            "target": 34962
        }
    },
    "buffers": {
        "\\Daten\\test\\gltf_10\\Tiles\\0\\0\\127\\GMLID_0314272_32937_848": {
            "byteLength": 168136,
            "type": "arraybuffer",
            "uri": "data:application/octet-stream;base64,"
        }
    },
    "images": {
        "_water_sparkling_img": {
            "name": "_water_sparkling_img",
            "uri": "_water_sparkling.jpg"
        }
    },
    "materials": {
        "_water_sparkling_eff": {
            "name": "_water_sparkling_mat",
            "technique": "technique0",
            "values": {
                "diffuse": "texture__water_sparkling_img",
                "emission": [
                    0,
                    0,
                    0,
                    1
                ]
            }
        },
        "default_tr_0.0_dc_r_0.59765625_g_0.53515625_b_0.35546875_sc_r_1.0_g_1.0_b_1.0_ec_r_0.0_g_0.0_b_0_eff": {
            "name": "default_tr_0.0_dc_r_0.59765625_g_0.53515625_b_0.35546875_sc_r_1.0_g_1.0_b_1.0_ec_r_0.0_g_0.0_b_0_mat",
            "technique": "technique1",
            "values": {
                "diffuse": [
                    0.597656,
                    0.535156,
                    0.355469,
                    1
                ],
                "emission": [
                    0,
                    0,
                    0,
                    1
                ]
            }
        }
    },
    "meshes": {
        "geometry0": {
            "name": "geometry0",
            "primitives": [
                {
                    "attributes": {
                        "NORMAL": "accessor_34",
                        "POSITION": "accessor_32"
                    },
                    "indices": "accessor_27",
                    "material": "default_tr_0.0_dc_r_0.59765625_g_0.53515625_b_0.35546875_sc_r_1.0_g_1.0_b_1.0_ec_r_0.0_g_0.0_b_0_eff",
                    "mode": 4
                },
                {
                    "attributes": {
                        "POSITION": "accessor_32",
                        "TEXCOORD_0": "accessor_36"
                    },
                    "indices": "accessor_30",
                    "material": "_water_sparkling_eff",
                    "mode": 4
                }
            ]
        }
    },
    "nodes": {
        "node_0": {
            "children": [],
            "matrix": [
                1,
                0,
                0,
                0,
                0,
                1,
                0,
                0,
                0,
                0,
                1,
                0,
                0,
                0,
                0,
                1
            ],
            "meshes": [
                "geometry0"
            ],
            "name": ""
        },
        "node_1": {
            "children": [
                "node_0"
            ],
            "matrix": [
                1,
                0,
                0,
                0,
                0,
                0,
                -1,
                0,
                0,
                1,
                0,
                0,
                0,
                0,
                0,
                1
            ],
            "name": "Y_UP_Transform"
        }
    },
    "programs": {
        "program_0": {
            "attributes": [
                "a_position",
                "a_texcoord0"
            ],
            "fragmentShader": "\\Daten\\test\\gltf_10\\Tiles\\0\\0\\127\\GMLID_0314272_32937_8480FS",
            "vertexShader": "\\Daten\\test\\gltf_10\\Tiles\\0\\0\\127\\GMLID_0314272_32937_8480VS"
        },
        "program_1": {
            "attributes": [
                "a_normal",
                "a_position"
            ],
            "fragmentShader": "\\Daten\\test\\gltf_10\\Tiles\\0\\0\\127\\GMLID_0314272_32937_8481FS",
            "vertexShader": "\\Daten\\test\\gltf_10\\Tiles\\0\\0\\127\\GMLID_0314272_32937_8481VS"
        }
    },
    "samplers": {
        "sampler_0": {
            "magFilter": 9729,
            "minFilter": 9729,
            "wrapS": 10497,
            "wrapT": 10497
        }
    },
    "scene": "defaultScene",
    "scenes": {
        "defaultScene": {
            "nodes": [
                "node_1"
            ]
        }
    },
    "shaders": {
        "\\Daten\\test\\gltf_10\\Tiles\\0\\0\\127\\GMLID_0314272_32937_8480FS": {
            "type": 35632,
            "uri": "data:text/plain;base64,"
        },
        "\\Daten\\test\\gltf_10\\Tiles\\0\\0\\127\\GMLID_0314272_32937_8480VS": {
            "type": 35633,
            "uri": "data:text/plain;base64,"
        },
        "\\Daten\\test\\gltf_10\\Tiles\\0\\0\\127\\GMLID_0314272_32937_8481FS": {
            "type": 35632,
            "uri": "data:text/plain;base64,"
        },
        "\\Daten\\test\\gltf_10\\Tiles\\0\\0\\127\\GMLID_0314272_32937_8481VS": {
            "type": 35633,
            "uri": "data:text/plain;base64,"
        }
    },
    "skins": {},
    "techniques": {
        "technique0": {
            "attributes": {
                "a_position": "position",
                "a_texcoord0": "texcoord0"
            },
            "parameters": {
                "diffuse": {
                    "type": 35678
                },
                "emission": {
                    "type": 35666
                },
                "modelViewMatrix": {
                    "semantic": "MODELVIEW",
                    "type": 35676
                },
                "position": {
                    "semantic": "POSITION",
                    "type": 35665
                },
                "projectionMatrix": {
                    "semantic": "PROJECTION",
                    "type": 35676
                },
                "texcoord0": {
                    "semantic": "TEXCOORD_0",
                    "type": 35664
                }
            },
            "program": "program_0",
            "states": {
                "enable": [
                    2929
                ]
            },
            "uniforms": {
                "u_diffuse": "diffuse",
                "u_emission": "emission",
                "u_modelViewMatrix": "modelViewMatrix",
                "u_projectionMatrix": "projectionMatrix"
            }
        },
        "technique1": {
            "attributes": {
                "a_normal": "normal",
                "a_position": "position"
            },
            "parameters": {
                "diffuse": {
                    "type": 35666
                },
                "emission": {
                    "type": 35666
                },
                "modelViewMatrix": {
                    "semantic": "MODELVIEW",
                    "type": 35676
                },
                "normal": {
                    "semantic": "NORMAL",
                    "type": 35665
                },
                "normalMatrix": {
                    "semantic": "MODELVIEWINVERSETRANSPOSE",
                    "type": 35675
                },
                "position": {
                    "semantic": "POSITION",
                    "type": 35665
                },
                "projectionMatrix": {
                    "semantic": "PROJECTION",
                    "type": 35676
                }
            },
            "program": "program_1",
            "states": {
                "enable": [
                    2929
                ]
            },
            "uniforms": {
                "u_diffuse": "diffuse",
                "u_emission": "emission",
                "u_modelViewMatrix": "modelViewMatrix",
                "u_normalMatrix": "normalMatrix",
                "u_projectionMatrix": "projectionMatrix"
            }
        }
    },
    "textures": {
        "texture__water_sparkling_img": {
            "format": 6408,
            "internalFormat": 6408,
            "sampler": "sampler_0",
            "source": "_water_sparkling_img",
            "target": 3553,
            "type": 5121
        }
    }
}