{
    "accessors": {
        "accessor_28": {
            "bufferView": "bufferView_37",
            "byteOffset": 0,
            "byteStride": 0,
            "componentType": 5123,
            "count": 858,
            "type": "SCALAR"
        },
        "accessor_31": {
            "bufferView": "bufferView_37",
            "byteOffset": 1716,
            "byteStride": 0,
            "componentType": 5123,
            "count": 36,
            "type": "SCALAR"
        },
        "accessor_33": {
            "bufferView": "bufferView_38",
            "byteOffset": 0,
            "byteStride": 12,
            "componentType": 5126,
            "count": 498,
            "max": [
                3.86874,
                6.87119,
                10.3802
            ],
            "min": [
                -2.24e-005,
                -0.537746,
                0
            ],
            "type": "VEC3"
        },
        "accessor_35": {
            "bufferView": "bufferView_38",
            "byteOffset": 5976,
            "byteStride": 12,
            "componentType": 5126,
            "count": 498,
            "max": [
                0.994288,
                0.994291,
                1
            ],
            "min": [
                -0.994279,
                -0.994273,
                -1
            ],
            "type": "VEC3"
        }
    },
    "animations": {},
    "asset": {
        "generator": "collada2gltf@d78daf1e7950e6c22fe6bec1d07965e8a302e90d",
        "premultipliedAlpha": true,
        "profile": {
            "api": "WebGL",
            "version": "1.0.2"
        },
        "version": 1
    },
    "bufferViews": {
        "bufferView_37": {
            "buffer": "\\Daten\\test\\gltf_10\\Tiles\\0\\0\\119\\GMLID_855011_330784_753",
            "byteLength": 1788,
            "byteOffset": 0,
            "target": 34963
        },
        "bufferView_38": {
            "buffer": "\\Daten\\test\\gltf_10\\Tiles\\0\\0\\119\\GMLID_855011_330784_753",
            "byteLength": 11952,
            "byteOffset": 1788,
            "target": 34962
        }
    },
    "buffers": {
        "\\Daten\\test\\gltf_10\\Tiles\\0\\0\\119\\GMLID_855011_330784_753": {
            "byteLength": 13740,
            "type": "arraybuffer",
            "uri": "data:application/octet-stream;base64,"
        }
    },
    "materials": {
        "default_tr_0.0_dc_r_0.44921875_g_0.44921875_b_0.49609375_sc_r_1.0_g_1.0_b_1.0_ec_r_0.0_g_0.0_b_0_eff": {
            "name": "default_tr_0.0_dc_r_0.44921875_g_0.44921875_b_0.49609375_sc_r_1.0_g_1.0_b_1.0_ec_r_0.0_g_0.0_b_0_mat",
            "technique": "technique0",
            "values": {
                "diffuse": [
                    0.449219,
                    0.449219,
                    0.496094,
                    1
                ],
                "emission": [
                    0,
                    0,
                    0,
                    1
                ]
            }
        },
        "default_tr_0.0_dc_r_0.59765625_g_0.59765625_b_0.59765625_sc_r_1.0_g_1.0_b_1.0_ec_r_0.0_g_0.0_b_0_eff": {
            "name": "default_tr_0.0_dc_r_0.59765625_g_0.59765625_b_0.59765625_sc_r_1.0_g_1.0_b_1.0_ec_r_0.0_g_0.0_b_0_mat",
            "technique": "technique0",
            "values": {
                "diffuse": [
                    0.597656,
                    0.597656,
                    0.597656,
                    1
                ],
                "emission": [
                    0,
                    0,
                    0,
                    1
                ]
            }
        }
    },
    "meshes": {
        "geometry0": {
            "name": "geometry0",
            "primitives": [
                {
                    "attributes": {
                        "NORMAL": "accessor_35",
                        "POSITION": "accessor_33"
                    },
                    "indices": "accessor_28",
                    "material": "default_tr_0.0_dc_r_0.59765625_g_0.59765625_b_0.59765625_sc_r_1.0_g_1.0_b_1.0_ec_r_0.0_g_0.0_b_0_eff",
                    "mode": 4
                },
                {
                    "attributes": {
                        "NORMAL": "accessor_35",
                        "POSITION": "accessor_33"
                    },
                    "indices": "accessor_31",
                    "material": "default_tr_0.0_dc_r_0.44921875_g_0.44921875_b_0.49609375_sc_r_1.0_g_1.0_b_1.0_ec_r_0.0_g_0.0_b_0_eff",
                    "mode": 4
                }
            ]
        }
    },
    "nodes": {
        "node_0": {
            "children": [],
            "matrix": [
                1,
                0,
                0,
                0,
                0,
                1,
                0,
                0,
                0,
                0,
                1,
                0,
                0,
                0,
                0,
                1
            ],
            "meshes": [
                "geometry0"
            ],
            "name": ""
        },
        "node_1": {
            "children": [
                "node_0"
            ],
            "matrix": [
                1,
                0,
                0,
                0,
                0,
                0,
                -1,
                0,
                0,
                1,
                0,
                0,
                0,
                0,
                0,
                1
            ],
            "name": "Y_UP_Transform"
        }
    },
    "programs": {
        "program_0": {
            "attributes": [
                "a_normal",
                "a_position"
            ],
            "fragmentShader": "\\Daten\\test\\gltf_10\\Tiles\\0\\0\\119\\GMLID_855011_330784_7530FS",
            "vertexShader": "\\Daten\\test\\gltf_10\\Tiles\\0\\0\\119\\GMLID_855011_330784_7530VS"
        }
    },
    "scene": "defaultScene",
    "scenes": {
        "defaultScene": {
            "nodes": [
                "node_1"
            ]
        }
    },
    "shaders": {
        "\\Daten\\test\\gltf_10\\Tiles\\0\\0\\119\\GMLID_855011_330784_7530FS": {
            "type": 35632,
            "uri": "data:text/plain;base64,"
        },
        "\\Daten\\test\\gltf_10\\Tiles\\0\\0\\119\\GMLID_855011_330784_7530VS": {
            "type": 35633,
            "uri": "data:text/plain;base64,"
        }
    },
    "skins": {},
    "techniques": {
        "technique0": {
            "attributes": {
                "a_normal": "normal",
                "a_position": "position"
            },
            "parameters": {
                "diffuse": {
                    "type": 35666
                },
                "emission": {
                    "type": 35666
                },
                "modelViewMatrix": {
                    "semantic": "MODELVIEW",
                    "type": 35676
                },
                "normal": {
                    "semantic": "NORMAL",
                    "type": 35665
                },
                "normalMatrix": {
                    "semantic": "MODELVIEWINVERSETRANSPOSE",
                    "type": 35675
                },
                "position": {
                    "semantic": "POSITION",
                    "type": 35665
                },
                "projectionMatrix": {
                    "semantic": "PROJECTION",
                    "type": 35676
                }
            },
            "program": "program_0",
            "states": {
                "enable": [
                    2929
                ]
            },
            "uniforms": {
                "u_diffuse": "diffuse",
                "u_emission": "emission",
                "u_modelViewMatrix": "modelViewMatrix",
                "u_normalMatrix": "normalMatrix",
                "u_projectionMatrix": "projectionMatrix"
            }
        }
    }
}