{
    "accessors": {
        "accessor_48": {
            "bufferView": "bufferView_63",
            "byteOffset": 0,
            "byteStride": 0,
            "componentType": 5123,
            "count": 2424,
            "type": "SCALAR"
        },
        "accessor_51": {
            "bufferView": "bufferView_63",
            "byteOffset": 4848,
            "byteStride": 0,
            "componentType": 5123,
            "count": 72,
            "type": "SCALAR"
        },
        "accessor_54": {
            "bufferView": "bufferView_63",
            "byteOffset": 4992,
            "byteStride": 0,
            "componentType": 5123,
            "count": 5304,
            "type": "SCALAR"
        },
        "accessor_57": {
            "bufferView": "bufferView_63",
            "byteOffset": 15600,
            "byteStride": 0,
            "componentType": 5123,
            "count": 288,
            "type": "SCALAR"
        },
        "accessor_59": {
            "bufferView": "bufferView_64",
            "byteOffset": 0,
            "byteStride": 12,
            "componentType": 5126,
            "count": 3983,
            "max": [
                60.9484,
                5.76461,
                29.7038
            ],
            "min": [
                -0.86051,
                -35.3147,
                0
            ],
            "type": "VEC3"
        },
        "accessor_61": {
            "bufferView": "bufferView_64",
            "byteOffset": 47796,
            "byteStride": 8,
            "componentType": 5126,
            "count": 3983,
            "max": [
                376.487,
                212.418
            ],
            "min": [
                -390.63,
                -549.913
            ],
            "type": "VEC2"
        }
    },
    "animations": {},
    "asset": {
        "generator": "collada2gltf@d78daf1e7950e6c22fe6bec1d07965e8a302e90d",
        "premultipliedAlpha": true,
        "profile": {
            "api": "WebGL",
            "version": "1.0.2"
        },
        "version": 1
    },
    "bufferViews": {
        "bufferView_63": {
            "buffer": "\\Daten\\test\\gltf_10\\Tiles\\0\\0\\169\\GMLID_BUI30683_572_6686",
            "byteLength": 16176,
            "byteOffset": 0,
            "target": 34963
        },
        "bufferView_64": {
            "buffer": "\\Daten\\test\\gltf_10\\Tiles\\0\\0\\169\\GMLID_BUI30683_572_6686",
            "byteLength": 79660,
            "byteOffset": 16176,
            "target": 34962
        }
    },
    "buffers": {
        "\\Daten\\test\\gltf_10\\Tiles\\0\\0\\169\\GMLID_BUI30683_572_6686": {
            "byteLength": 95836,
            "type": "arraybuffer",
            "uri": "data:application/octet-stream;base64,"
        }
    },
    "images": {
        "_bruecke-beton_img": {
            "name": "_bruecke-beton_img",
            "uri": "_bruecke-beton.jpeg"
        },
        "_bruecke-schotter_img": {
            "name": "_bruecke-schotter_img",
            "uri": "_bruecke-schotter.jpeg"
        },
        "_bruecken-metall_img": {
            "name": "_bruecken-metall_img",
            "uri": "_bruecken-metall.jpeg"
        },
        "_metal_rusted_img": {
            "name": "_metal_rusted_img",
            "uri": "_metal_rusted.jpeg"
        }
    },
    "materials": {
        "_bruecke-beton_eff": {
            "name": "_bruecke-beton_mat",
            "technique": "technique0",
            "values": {
                "diffuse": "texture__bruecke-beton_img",
                "emission": [
                    0,
                    0,
                    0,
                    1
                ]
            }
        },
        "_bruecke-schotter_eff": {
            "name": "_bruecke-schotter_mat",
            "technique": "technique0",
            "values": {
                "diffuse": "texture__bruecke-schotter_img",
                "emission": [
                    0,
                    0,
                    0,
                    1
                ]
            }
        },
        "_bruecken-metall_eff": {
            "name": "_bruecken-metall_mat",
            "technique": "technique0",
            "values": {
                "diffuse": "texture__bruecken-metall_img",
                "emission": [
                    0,
                    0,
                    0,
                    1
                ]
            }
        },
        "_metal_rusted_eff": {
            "name": "_metal_rusted_mat",
            "technique": "technique0",
            "values": {
                "diffuse": "texture__metal_rusted_img",
                "emission": [
                    0,
                    0,
                    0,
                    1
                ]
            }
        }
    },
    "meshes": {
        "geometry0": {
            "name": "geometry0",
            "primitives": [
                {
                    "attributes": {
                        "POSITION": "accessor_59",
                        "TEXCOORD_0": "accessor_61"
                    },
                    "indices": "accessor_48",
                    "material": "_metal_rusted_eff",
                    "mode": 4
                },
                {
                    "attributes": {
                        "POSITION": "accessor_59",
                        "TEXCOORD_0": "accessor_61"
                    },
                    "indices": "accessor_51",
                    "material": "_bruecke-schotter_eff",
                    "mode": 4
                },
                {
                    "attributes": {
                        "POSITION": "accessor_59",
                        "TEXCOORD_0": "accessor_61"
                    },
                    "indices": "accessor_54",
                    "material": "_bruecken-metall_eff",
                    "mode": 4
                },
                {
                    "attributes": {
                        "POSITION": "accessor_59",
                        "TEXCOORD_0": "accessor_61"
                    },
                    "indices": "accessor_57",
                    "material": "_bruecke-beton_eff",
                    "mode": 4
                }
            ]
        }
    },
    "nodes": {
        "node_0": {
            "children": [],
            "matrix": [
                1,
                0,
                0,
                0,
                0,
                1,
                0,
                0,
                0,
                0,
                1,
                0,
                0,
                0,
                0,
                1
            ],
            "meshes": [
                "geometry0"
            ],
            "name": ""
        },
        "node_1": {
            "children": [
                "node_0"
            ],
            "matrix": [
                1,
                0,
                0,
                0,
                0,
                0,
                -1,
                0,
                0,
                1,
                0,
                0,
                0,
                0,
                0,
                1
            ],
            "name": "Y_UP_Transform"
        }
    },
    "programs": {
        "program_0": {
            "attributes": [
                "a_position",
                "a_texcoord0"
            ],
            "fragmentShader": "\\Daten\\test\\gltf_10\\Tiles\\0\\0\\169\\GMLID_BUI30683_572_66860FS",
            "vertexShader": "\\Daten\\test\\gltf_10\\Tiles\\0\\0\\169\\GMLID_BUI30683_572_66860VS"
        }
    },
    "samplers": {
        "sampler_0": {
            "magFilter": 9729,
            "minFilter": 9729,
            "wrapS": 10497,
            "wrapT": 10497
        }
    },
    "scene": "defaultScene",
    "scenes": {
        "defaultScene": {
            "nodes": [
                "node_1"
            ]
        }
    },
    "shaders": {
        "\\Daten\\test\\gltf_10\\Tiles\\0\\0\\169\\GMLID_BUI30683_572_66860FS": {
            "type": 35632,
            "uri": "data:text/plain;base64,"
        },
        "\\Daten\\test\\gltf_10\\Tiles\\0\\0\\169\\GMLID_BUI30683_572_66860VS": {
            "type": 35633,
            "uri": "data:text/plain;base64,"
        }
    },
    "skins": {},
    "techniques": {
        "technique0": {
            "attributes": {
                "a_position": "position",
                "a_texcoord0": "texcoord0"
            },
            "parameters": {
                "diffuse": {
                    "type": 35678
                },
                "emission": {
                    "type": 35666
                },
                "modelViewMatrix": {
                    "semantic": "MODELVIEW",
                    "type": 35676
                },
                "position": {
                    "semantic": "POSITION",
                    "type": 35665
                },
                "projectionMatrix": {
                    "semantic": "PROJECTION",
                    "type": 35676
                },
                "texcoord0": {
                    "semantic": "TEXCOORD_0",
                    "type": 35664
                }
            },
            "program": "program_0",
            "states": {
                "enable": [
                    2929
                ]
            },
            "uniforms": {
                "u_diffuse": "diffuse",
                "u_emission": "emission",
                "u_modelViewMatrix": "modelViewMatrix",
                "u_projectionMatrix": "projectionMatrix"
            }
        }
    },
    "textures": {
        "texture__bruecke-beton_img": {
            "format": 6408,
            "internalFormat": 6408,
            "sampler": "sampler_0",
            "source": "_bruecke-beton_img",
            "target": 3553,
            "type": 5121
        },
        "texture__bruecke-schotter_img": {
            "format": 6408,
            "internalFormat": 6408,
            "sampler": "sampler_0",
            "source": "_bruecke-schotter_img",
            "target": 3553,
            "type": 5121
        },
        "texture__bruecken-metall_img": {
            "format": 6408,
            "internalFormat": 6408,
            "sampler": "sampler_0",
            "source": "_bruecken-metall_img",
            "target": 3553,
            "type": 5121
        },
        "texture__metal_rusted_img": {
            "format": 6408,
            "internalFormat": 6408,
            "sampler": "sampler_0",
            "source": "_metal_rusted_img",
            "target": 3553,
            "type": 5121
        }
    }
}