{
    "accessors": {
        "accessor_48": {
            "bufferView": "bufferView_63",
            "byteOffset": 0,
            "byteStride": 0,
            "componentType": 5123,
            "count": 1260,
            "type": "SCALAR"
        },
        "accessor_51": {
            "bufferView": "bufferView_63",
            "byteOffset": 2520,
            "byteStride": 0,
            "componentType": 5123,
            "count": 216,
            "type": "SCALAR"
        },
        "accessor_54": {
            "bufferView": "bufferView_63",
            "byteOffset": 2952,
            "byteStride": 0,
            "componentType": 5123,
            "count": 1692,
            "type": "SCALAR"
        },
        "accessor_57": {
            "bufferView": "bufferView_63",
            "byteOffset": 6336,
            "byteStride": 0,
            "componentType": 5123,
            "count": 84,
            "type": "SCALAR"
        },
        "accessor_59": {
            "bufferView": "bufferView_64",
            "byteOffset": 0,
            "byteStride": 12,
            "componentType": 5126,
            "count": 1610,
            "max": [
                130.36,
                10.9812,
                15.1173
            ],
            "min": [
                -0.11878,
                -69.3346,
                0
            ],
            "type": "VEC3"
        },
        "accessor_61": {
            "bufferView": "bufferView_64",
            "byteOffset": 19320,
            "byteStride": 8,
            "componentType": 5126,
            "count": 1610,
            "max": [
                318.422,
                197.223
            ],
            "min": [
                -136.219,
                -410.646
            ],
            "type": "VEC2"
        }
    },
    "animations": {},
    "asset": {
        "generator": "collada2gltf@d78daf1e7950e6c22fe6bec1d07965e8a302e90d",
        "premultipliedAlpha": true,
        "profile": {
            "api": "WebGL",
            "version": "1.0.2"
        },
        "version": 1
    },
    "bufferViews": {
        "bufferView_63": {
            "buffer": "\\Daten\\test\\gltf_10\\Tiles\\0\\0\\170\\GMLID_BUI180021_673_14143",
            "byteLength": 6504,
            "byteOffset": 0,
            "target": 34963
        },
        "bufferView_64": {
            "buffer": "\\Daten\\test\\gltf_10\\Tiles\\0\\0\\170\\GMLID_BUI180021_673_14143",
            "byteLength": 32200,
            "byteOffset": 6504,
            "target": 34962
        }
    },
    "buffers": {
        "\\Daten\\test\\gltf_10\\Tiles\\0\\0\\170\\GMLID_BUI180021_673_14143": {
            "byteLength": 38704,
            "type": "arraybuffer",
            "uri": "data:application/octet-stream;base64,"
        }
    },
    "images": {
        "_granit-128x128_img": {
            "name": "_granit-128x128_img",
            "uri": "_granit-128x128.jpeg"
        },
        "_schotter-128x128_img": {
            "name": "_schotter-128x128_img",
            "uri": "_schotter-128x128.jpeg"
        },
        "_wand_18-128-128_img": {
            "name": "_wand_18-128-128_img",
            "uri": "_wand_18-128-128.jpeg"
        },
        "_wand_25-128x128_img": {
            "name": "_wand_25-128x128_img",
            "uri": "_wand_25-128x128.jpeg"
        }
    },
    "materials": {
        "_granit-128x128_eff": {
            "name": "_granit-128x128_mat",
            "technique": "technique0",
            "values": {
                "diffuse": "texture__granit-128x128_img",
                "emission": [
                    0,
                    0,
                    0,
                    1
                ]
            }
        },
        "_schotter-128x128_eff": {
            "name": "_schotter-128x128_mat",
            "technique": "technique0",
            "values": {
                "diffuse": "texture__schotter-128x128_img",
                "emission": [
                    0,
                    0,
                    0,
                    1
                ]
            }
        },
        "_wand_18-128-128_eff": {
            "name": "_wand_18-128-128_mat",
            "technique": "technique0",
            "values": {
                "diffuse": "texture__wand_18-128-128_img",
                "emission": [
                    0,
                    0,
                    0,
                    1
                ]
            }
        },
        "_wand_25-128x128_eff": {
            "name": "_wand_25-128x128_mat",
            "technique": "technique0",
            "values": {
                "diffuse": "texture__wand_25-128x128_img",
                "emission": [
                    0,
                    0,
                    0,
                    1
                ]
            }
        }
    },
    "meshes": {
        "geometry0": {
            "name": "geometry0",
            "primitives": [
                {
                    "attributes": {
                        "POSITION": "accessor_59",
                        "TEXCOORD_0": "accessor_61"
                    },
                    "indices": "accessor_48",
                    "material": "_wand_18-128-128_eff",
                    "mode": 4
                },
                {
                    "attributes": {
                        "POSITION": "accessor_59",
                        "TEXCOORD_0": "accessor_61"
                    },
                    "indices": "accessor_51",
                    "material": "_granit-128x128_eff",
                    "mode": 4
                },
                {
                    "attributes": {
                        "POSITION": "accessor_59",
                        "TEXCOORD_0": "accessor_61"
                    },
                    "indices": "accessor_54",
                    "material": "_wand_25-128x128_eff",
                    "mode": 4
                },
                {
                    "attributes": {
                        "POSITION": "accessor_59",
                        "TEXCOORD_0": "accessor_61"
                    },
                    "indices": "accessor_57",
                    "material": "_schotter-128x128_eff",
                    "mode": 4
                }
            ]
        }
    },
    "nodes": {
        "node_0": {
            "children": [],
            "matrix": [
                1,
                0,
                0,
                0,
                0,
                1,
                0,
                0,
                0,
                0,
                1,
                0,
                0,
                0,
                0,
                1
            ],
            "meshes": [
                "geometry0"
            ],
            "name": ""
        },
        "node_1": {
            "children": [
                "node_0"
            ],
            "matrix": [
                1,
                0,
                0,
                0,
                0,
                0,
                -1,
                0,
                0,
                1,
                0,
                0,
                0,
                0,
                0,
                1
            ],
            "name": "Y_UP_Transform"
        }
    },
    "programs": {
        "program_0": {
            "attributes": [
                "a_position",
                "a_texcoord0"
            ],
            "fragmentShader": "\\Daten\\test\\gltf_10\\Tiles\\0\\0\\170\\GMLID_BUI180021_673_141430FS",
            "vertexShader": "\\Daten\\test\\gltf_10\\Tiles\\0\\0\\170\\GMLID_BUI180021_673_141430VS"
        }
    },
    "samplers": {
        "sampler_0": {
            "magFilter": 9729,
            "minFilter": 9729,
            "wrapS": 10497,
            "wrapT": 10497
        }
    },
    "scene": "defaultScene",
    "scenes": {
        "defaultScene": {
            "nodes": [
                "node_1"
            ]
        }
    },
    "shaders": {
        "\\Daten\\test\\gltf_10\\Tiles\\0\\0\\170\\GMLID_BUI180021_673_141430FS": {
            "type": 35632,
            "uri": "data:text/plain;base64,"
        },
        "\\Daten\\test\\gltf_10\\Tiles\\0\\0\\170\\GMLID_BUI180021_673_141430VS": {
            "type": 35633,
            "uri": "data:text/plain;base64,"
        }
    },
    "skins": {},
    "techniques": {
        "technique0": {
            "attributes": {
                "a_position": "position",
                "a_texcoord0": "texcoord0"
            },
            "parameters": {
                "diffuse": {
                    "type": 35678
                },
                "emission": {
                    "type": 35666
                },
                "modelViewMatrix": {
                    "semantic": "MODELVIEW",
                    "type": 35676
                },
                "position": {
                    "semantic": "POSITION",
                    "type": 35665
                },
                "projectionMatrix": {
                    "semantic": "PROJECTION",
                    "type": 35676
                },
                "texcoord0": {
                    "semantic": "TEXCOORD_0",
                    "type": 35664
                }
            },
            "program": "program_0",
            "states": {
                "enable": [
                    2929
                ]
            },
            "uniforms": {
                "u_diffuse": "diffuse",
                "u_emission": "emission",
                "u_modelViewMatrix": "modelViewMatrix",
                "u_projectionMatrix": "projectionMatrix"
            }
        }
    },
    "textures": {
        "texture__granit-128x128_img": {
            "format": 6408,
            "internalFormat": 6408,
            "sampler": "sampler_0",
            "source": "_granit-128x128_img",
            "target": 3553,
            "type": 5121
        },
        "texture__schotter-128x128_img": {
            "format": 6408,
            "internalFormat": 6408,
            "sampler": "sampler_0",
            "source": "_schotter-128x128_img",
            "target": 3553,
            "type": 5121
        },
        "texture__wand_18-128-128_img": {
            "format": 6408,
            "internalFormat": 6408,
            "sampler": "sampler_0",
            "source": "_wand_18-128-128_img",
            "target": 3553,
            "type": 5121
        },
        "texture__wand_25-128x128_img": {
            "format": 6408,
            "internalFormat": 6408,
            "sampler": "sampler_0",
            "source": "_wand_25-128x128_img",
            "target": 3553,
            "type": 5121
        }
    }
}