{
    "accessors": {
        "accessor_100": {
            "bufferView": "bufferView_108",
            "byteOffset": 3864,
            "byteStride": 0,
            "componentType": 5123,
            "count": 6,
            "type": "SCALAR"
        },
        "accessor_102": {
            "bufferView": "bufferView_109",
            "byteOffset": 0,
            "byteStride": 12,
            "componentType": 5126,
            "count": 820,
            "max": [
                24.0369,
                1.89273,
                17.3991
            ],
            "min": [
                -2.85863,
                -19.1113,
                0
            ],
            "type": "VEC3"
        },
        "accessor_104": {
            "bufferView": "bufferView_109",
            "byteOffset": 9840,
            "byteStride": 12,
            "componentType": 5126,
            "count": 820,
            "max": [
                0.260819,
                0.559328,
                1.37767e-039
            ],
            "min": [
                -0.246547,
                -0.528722,
                -1
            ],
            "type": "VEC3"
        },
        "accessor_106": {
            "bufferView": "bufferView_109",
            "byteOffset": 19680,
            "byteStride": 8,
            "componentType": 5126,
            "count": 820,
            "max": [
                234.261,
                106.191
            ],
            "min": [
                -383.008,
                -464.177
            ],
            "type": "VEC2"
        },
        "accessor_82": {
            "bufferView": "bufferView_108",
            "byteOffset": 0,
            "byteStride": 0,
            "componentType": 5123,
            "count": 42,
            "type": "SCALAR"
        },
        "accessor_85": {
            "bufferView": "bufferView_108",
            "byteOffset": 84,
            "byteStride": 0,
            "componentType": 5123,
            "count": 24,
            "type": "SCALAR"
        },
        "accessor_88": {
            "bufferView": "bufferView_108",
            "byteOffset": 132,
            "byteStride": 0,
            "componentType": 5123,
            "count": 624,
            "type": "SCALAR"
        },
        "accessor_91": {
            "bufferView": "bufferView_108",
            "byteOffset": 1380,
            "byteStride": 0,
            "componentType": 5123,
            "count": 75,
            "type": "SCALAR"
        },
        "accessor_94": {
            "bufferView": "bufferView_108",
            "byteOffset": 1530,
            "byteStride": 0,
            "componentType": 5123,
            "count": 996,
            "type": "SCALAR"
        },
        "accessor_97": {
            "bufferView": "bufferView_108",
            "byteOffset": 3522,
            "byteStride": 0,
            "componentType": 5123,
            "count": 171,
            "type": "SCALAR"
        }
    },
    "animations": {},
    "asset": {
        "generator": "collada2gltf@d78daf1e7950e6c22fe6bec1d07965e8a302e90d",
        "premultipliedAlpha": true,
        "profile": {
            "api": "WebGL",
            "version": "1.0.2"
        },
        "version": 1
    },
    "bufferViews": {
        "bufferView_108": {
            "buffer": "\\Daten\\test\\gltf_10\\Tiles\\0\\0\\64\\GMLID_BUI46739_1739_10911",
            "byteLength": 3876,
            "byteOffset": 0,
            "target": 34963
        },
        "bufferView_109": {
            "buffer": "\\Daten\\test\\gltf_10\\Tiles\\0\\0\\64\\GMLID_BUI46739_1739_10911",
            "byteLength": 26240,
            "byteOffset": 3876,
            "target": 34962
        }
    },
    "buffers": {
        "\\Daten\\test\\gltf_10\\Tiles\\0\\0\\64\\GMLID_BUI46739_1739_10911": {
            "byteLength": 30116,
            "type": "arraybuffer",
            "uri": "data:application/octet-stream;base64,"
        }
    },
    "images": {
        "_kirchenfenster-v2_img": {
            "name": "_kirchenfenster-v2_img",
            "uri": "_kirchenfenster-v2.jpeg"
        },
        "_roofing_slate_dark_img": {
            "name": "_roofing_slate_dark_img",
            "uri": "_roofing_slate_dark.jpeg"
        },
        "_roofing_slate_rounded_img": {
            "name": "_roofing_slate_rounded_img",
            "uri": "_roofing_slate_rounded.jpeg"
        },
        "_stone_sandstone_ashlar_light1_img": {
            "name": "_stone_sandstone_ashlar_light1_img",
            "uri": "_stone_sandstone_ashlar_light1.jpeg"
        },
        "_stone_sandstone_ashlar_light_img": {
            "name": "_stone_sandstone_ashlar_light_img",
            "uri": "_stone_sandstone_ashlar_light.jpeg"
        },
        "_wood_cherry_chapel_img": {
            "name": "_wood_cherry_chapel_img",
            "uri": "_wood_cherry_chapel.jpeg"
        }
    },
    "materials": {
        "_kirchenfenster-v2_eff": {
            "name": "_kirchenfenster-v2_mat",
            "technique": "technique0",
            "values": {
                "diffuse": "texture__kirchenfenster-v2_img",
                "emission": [
                    0,
                    0,
                    0,
                    1
                ]
            }
        },
        "_roofing_slate_dark_eff": {
            "name": "_roofing_slate_dark_mat",
            "technique": "technique0",
            "values": {
                "diffuse": "texture__roofing_slate_dark_img",
                "emission": [
                    0,
                    0,
                    0,
                    1
                ]
            }
        },
        "_roofing_slate_rounded_eff": {
            "name": "_roofing_slate_rounded_mat",
            "technique": "technique0",
            "values": {
                "diffuse": "texture__roofing_slate_rounded_img",
                "emission": [
                    0,
                    0,
                    0,
                    1
                ]
            }
        },
        "_stone_sandstone_ashlar_light1_eff": {
            "name": "_stone_sandstone_ashlar_light1_mat",
            "technique": "technique0",
            "values": {
                "diffuse": "texture__stone_sandstone_ashlar_light1_img",
                "emission": [
                    0,
                    0,
                    0,
                    1
                ]
            }
        },
        "_stone_sandstone_ashlar_light_eff": {
            "name": "_stone_sandstone_ashlar_light_mat",
            "technique": "technique0",
            "values": {
                "diffuse": "texture__stone_sandstone_ashlar_light_img",
                "emission": [
                    0,
                    0,
                    0,
                    1
                ]
            }
        },
        "_wood_cherry_chapel_eff": {
            "name": "_wood_cherry_chapel_mat",
            "technique": "technique0",
            "values": {
                "diffuse": "texture__wood_cherry_chapel_img",
                "emission": [
                    0,
                    0,
                    0,
                    1
                ]
            }
        },
        "default_ai_0.2_sh_0.2_tr_0.21568627450980393_dc_r_0.8_g_0.8_b_0.8_sc_r_1.0_g_1.0_b_1.0_ec_r_0.0_g_0.0_b_0_eff": {
            "name": "default_ai_0.2_sh_0.2_tr_0.21568627450980393_dc_r_0.8_g_0.8_b_0.8_sc_r_1.0_g_1.0_b_1.0_ec_r_0.0_g_0.0_b_0_mat",
            "technique": "technique1",
            "values": {
                "diffuse": [
                    0.8,
                    0.8,
                    0.8,
                    1
                ],
                "emission": [
                    0,
                    0,
                    0,
                    1
                ],
                "transparency": 0.784314
            }
        }
    },
    "meshes": {
        "geometry0": {
            "name": "geometry0",
            "primitives": [
                {
                    "attributes": {
                        "NORMAL": "accessor_104",
                        "POSITION": "accessor_102"
                    },
                    "indices": "accessor_82",
                    "material": "default_ai_0.2_sh_0.2_tr_0.21568627450980393_dc_r_0.8_g_0.8_b_0.8_sc_r_1.0_g_1.0_b_1.0_ec_r_0.0_g_0.0_b_0_eff",
                    "mode": 4
                },
                {
                    "attributes": {
                        "POSITION": "accessor_102",
                        "TEXCOORD_0": "accessor_106"
                    },
                    "indices": "accessor_85",
                    "material": "_roofing_slate_dark_eff",
                    "mode": 4
                },
                {
                    "attributes": {
                        "POSITION": "accessor_102",
                        "TEXCOORD_0": "accessor_106"
                    },
                    "indices": "accessor_88",
                    "material": "_kirchenfenster-v2_eff",
                    "mode": 4
                },
                {
                    "attributes": {
                        "POSITION": "accessor_102",
                        "TEXCOORD_0": "accessor_106"
                    },
                    "indices": "accessor_91",
                    "material": "_roofing_slate_rounded_eff",
                    "mode": 4
                },
                {
                    "attributes": {
                        "POSITION": "accessor_102",
                        "TEXCOORD_0": "accessor_106"
                    },
                    "indices": "accessor_94",
                    "material": "_stone_sandstone_ashlar_light_eff",
                    "mode": 4
                },
                {
                    "attributes": {
                        "POSITION": "accessor_102",
                        "TEXCOORD_0": "accessor_106"
                    },
                    "indices": "accessor_97",
                    "material": "_wood_cherry_chapel_eff",
                    "mode": 4
                },
                {
                    "attributes": {
                        "POSITION": "accessor_102",
                        "TEXCOORD_0": "accessor_106"
                    },
                    "indices": "accessor_100",
                    "material": "_stone_sandstone_ashlar_light1_eff",
                    "mode": 4
                }
            ]
        }
    },
    "nodes": {
        "node_0": {
            "children": [],
            "matrix": [
                1,
                0,
                0,
                0,
                0,
                1,
                0,
                0,
                0,
                0,
                1,
                0,
                0,
                0,
                0,
                1
            ],
            "meshes": [
                "geometry0"
            ],
            "name": ""
        },
        "node_1": {
            "children": [
                "node_0"
            ],
            "matrix": [
                1,
                0,
                0,
                0,
                0,
                0,
                -1,
                0,
                0,
                1,
                0,
                0,
                0,
                0,
                0,
                1
            ],
            "name": "Y_UP_Transform"
        }
    },
    "programs": {
        "program_0": {
            "attributes": [
                "a_position",
                "a_texcoord0"
            ],
            "fragmentShader": "\\Daten\\test\\gltf_10\\Tiles\\0\\0\\64\\GMLID_BUI46739_1739_109110FS",
            "vertexShader": "\\Daten\\test\\gltf_10\\Tiles\\0\\0\\64\\GMLID_BUI46739_1739_109110VS"
        },
        "program_1": {
            "attributes": [
                "a_normal",
                "a_position"
            ],
            "fragmentShader": "\\Daten\\test\\gltf_10\\Tiles\\0\\0\\64\\GMLID_BUI46739_1739_109111FS",
            "vertexShader": "\\Daten\\test\\gltf_10\\Tiles\\0\\0\\64\\GMLID_BUI46739_1739_109111VS"
        }
    },
    "samplers": {
        "sampler_0": {
            "magFilter": 9729,
            "minFilter": 9729,
            "wrapS": 10497,
            "wrapT": 10497
        }
    },
    "scene": "defaultScene",
    "scenes": {
        "defaultScene": {
            "nodes": [
                "node_1"
            ]
        }
    },
    "shaders": {
        "\\Daten\\test\\gltf_10\\Tiles\\0\\0\\64\\GMLID_BUI46739_1739_109110FS": {
            "type": 35632,
            "uri": "data:text/plain;base64,"
        },
        "\\Daten\\test\\gltf_10\\Tiles\\0\\0\\64\\GMLID_BUI46739_1739_109110VS": {
            "type": 35633,
            "uri": "data:text/plain;base64,"
        },
        "\\Daten\\test\\gltf_10\\Tiles\\0\\0\\64\\GMLID_BUI46739_1739_109111FS": {
            "type": 35632,
            "uri": "data:text/plain;base64,"
        },
        "\\Daten\\test\\gltf_10\\Tiles\\0\\0\\64\\GMLID_BUI46739_1739_109111VS": {
            "type": 35633,
            "uri": "data:text/plain;base64,"
        }
    },
    "skins": {},
    "techniques": {
        "technique0": {
            "attributes": {
                "a_position": "position",
                "a_texcoord0": "texcoord0"
            },
            "parameters": {
                "diffuse": {
                    "type": 35678
                },
                "emission": {
                    "type": 35666
                },
                "modelViewMatrix": {
                    "semantic": "MODELVIEW",
                    "type": 35676
                },
                "position": {
                    "semantic": "POSITION",
                    "type": 35665
                },
                "projectionMatrix": {
                    "semantic": "PROJECTION",
                    "type": 35676
                },
                "texcoord0": {
                    "semantic": "TEXCOORD_0",
                    "type": 35664
                }
            },
            "program": "program_0",
            "states": {
                "enable": [
                    2929
                ]
            },
            "uniforms": {
                "u_diffuse": "diffuse",
                "u_emission": "emission",
                "u_modelViewMatrix": "modelViewMatrix",
                "u_projectionMatrix": "projectionMatrix"
            }
        },
        "technique1": {
            "attributes": {
                "a_normal": "normal",
                "a_position": "position"
            },
            "parameters": {
                "diffuse": {
                    "type": 35666
                },
                "emission": {
                    "type": 35666
                },
                "modelViewMatrix": {
                    "semantic": "MODELVIEW",
                    "type": 35676
                },
                "normal": {
                    "semantic": "NORMAL",
                    "type": 35665
                },
                "normalMatrix": {
                    "semantic": "MODELVIEWINVERSETRANSPOSE",
                    "type": 35675
                },
                "position": {
                    "semantic": "POSITION",
                    "type": 35665
                },
                "projectionMatrix": {
                    "semantic": "PROJECTION",
                    "type": 35676
                },
                "transparency": {
                    "type": 5126
                }
            },
            "program": "program_1",
            "states": {
                "enable": [
                    2929,
                    3042
                ],
                "functions": {
                    "blendEquationSeparate": [
                        32774,
                        32774
                    ],
                    "blendFuncSeparate": [
                        1,
                        771,
                        1,
                        771
                    ],
                    "depthMask": false
                }
            },
            "uniforms": {
                "u_diffuse": "diffuse",
                "u_emission": "emission",
                "u_modelViewMatrix": "modelViewMatrix",
                "u_normalMatrix": "normalMatrix",
                "u_projectionMatrix": "projectionMatrix",
                "u_transparency": "transparency"
            }
        }
    },
    "textures": {
        "texture__kirchenfenster-v2_img": {
            "format": 6408,
            "internalFormat": 6408,
            "sampler": "sampler_0",
            "source": "_kirchenfenster-v2_img",
            "target": 3553,
            "type": 5121
        },
        "texture__roofing_slate_dark_img": {
            "format": 6408,
            "internalFormat": 6408,
            "sampler": "sampler_0",
            "source": "_roofing_slate_dark_img",
            "target": 3553,
            "type": 5121
        },
        "texture__roofing_slate_rounded_img": {
            "format": 6408,
            "internalFormat": 6408,
            "sampler": "sampler_0",
            "source": "_roofing_slate_rounded_img",
            "target": 3553,
            "type": 5121
        },
        "texture__stone_sandstone_ashlar_light1_img": {
            "format": 6408,
            "internalFormat": 6408,
            "sampler": "sampler_0",
            "source": "_stone_sandstone_ashlar_light1_img",
            "target": 3553,
            "type": 5121
        },
        "texture__stone_sandstone_ashlar_light_img": {
            "format": 6408,
            "internalFormat": 6408,
            "sampler": "sampler_0",
            "source": "_stone_sandstone_ashlar_light_img",
            "target": 3553,
            "type": 5121
        },
        "texture__wood_cherry_chapel_img": {
            "format": 6408,
            "internalFormat": 6408,
            "sampler": "sampler_0",
            "source": "_wood_cherry_chapel_img",
            "target": 3553,
            "type": 5121
        }
    }
}