{
    "accessors": {
        "accessor_102": {
            "bufferView": "bufferView_113",
            "byteOffset": 31080,
            "byteStride": 0,
            "componentType": 5123,
            "count": 288,
            "type": "SCALAR"
        },
        "accessor_105": {
            "bufferView": "bufferView_113",
            "byteOffset": 31656,
            "byteStride": 0,
            "componentType": 5123,
            "count": 480,
            "type": "SCALAR"
        },
        "accessor_107": {
            "bufferView": "bufferView_114",
            "byteOffset": 0,
            "byteStride": 12,
            "componentType": 5126,
            "count": 10699,
            "max": [
                66.0531,
                11.1264,
                2.52095
            ],
            "min": [
                -147.419,
                -16.4391,
                0
            ],
            "type": "VEC3"
        },
        "accessor_109": {
            "bufferView": "bufferView_114",
            "byteOffset": 128388,
            "byteStride": 12,
            "componentType": 5126,
            "count": 10699,
            "max": [
                1,
                1,
                1
            ],
            "min": [
                -1,
                -1,
                -1
            ],
            "type": "VEC3"
        },
        "accessor_111": {
            "bufferView": "bufferView_114",
            "byteOffset": 256776,
            "byteStride": 8,
            "componentType": 5126,
            "count": 10699,
            "max": [
                318.009,
                4.60174
            ],
            "min": [
                -27.5,
                -126.826
            ],
            "type": "VEC2"
        },
        "accessor_87": {
            "bufferView": "bufferView_113",
            "byteOffset": 0,
            "byteStride": 0,
            "componentType": 5123,
            "count": 13464,
            "type": "SCALAR"
        },
        "accessor_90": {
            "bufferView": "bufferView_113",
            "byteOffset": 26928,
            "byteStride": 0,
            "componentType": 5123,
            "count": 126,
            "type": "SCALAR"
        },
        "accessor_93": {
            "bufferView": "bufferView_113",
            "byteOffset": 27180,
            "byteStride": 0,
            "componentType": 5123,
            "count": 576,
            "type": "SCALAR"
        },
        "accessor_96": {
            "bufferView": "bufferView_113",
            "byteOffset": 28332,
            "byteStride": 0,
            "componentType": 5123,
            "count": 72,
            "type": "SCALAR"
        },
        "accessor_99": {
            "bufferView": "bufferView_113",
            "byteOffset": 28476,
            "byteStride": 0,
            "componentType": 5123,
            "count": 1302,
            "type": "SCALAR"
        }
    },
    "animations": {},
    "asset": {
        "generator": "collada2gltf@d78daf1e7950e6c22fe6bec1d07965e8a302e90d",
        "premultipliedAlpha": true,
        "profile": {
            "api": "WebGL",
            "version": "1.0.2"
        },
        "version": 1
    },
    "bufferViews": {
        "bufferView_113": {
            "buffer": "\\Daten\\test\\gltf_10\\Tiles\\0\\0\\221\\GMLID_0632464_192141_968",
            "byteLength": 32616,
            "byteOffset": 0,
            "target": 34963
        },
        "bufferView_114": {
            "buffer": "\\Daten\\test\\gltf_10\\Tiles\\0\\0\\221\\GMLID_0632464_192141_968",
            "byteLength": 342368,
            "byteOffset": 32616,
            "target": 34962
        }
    },
    "buffers": {
        "\\Daten\\test\\gltf_10\\Tiles\\0\\0\\221\\GMLID_0632464_192141_968": {
            "byteLength": 374984,
            "type": "arraybuffer",
            "uri": "data:application/octet-stream;base64,"
        }
    },
    "images": {
        "_maerz-0_img": {
            "name": "_maerz-0_img",
            "uri": "_maerz-0.png"
        }
    },
    "materials": {
        "_maerz-0_eff": {
            "name": "_maerz-0_mat",
            "technique": "technique0",
            "values": {
                "diffuse": "texture__maerz-0_img",
                "emission": [
                    0,
                    0,
                    0,
                    1
                ]
            }
        },
        "default_ai_0.2_sh_0.2_tr_0.0_dc_r_0.8_g_0.8_b_0.8_sc_r_1.0_g_1.0_b_1.0_ec_r_0.0_g_0.0_b_0_eff": {
            "name": "default_ai_0.2_sh_0.2_tr_0.0_dc_r_0.8_g_0.8_b_0.8_sc_r_1.0_g_1.0_b_1.0_ec_r_0.0_g_0.0_b_0_mat",
            "technique": "technique1",
            "values": {
                "diffuse": [
                    0.8,
                    0.8,
                    0.8,
                    1
                ],
                "emission": [
                    0,
                    0,
                    0,
                    1
                ]
            }
        },
        "default_tr_0.0_dc_r_0.19921875_g_0.19921875_b_0.19921875_sc_r_1.0_g_1.0_b_1.0_ec_r_0.0_g_0.0_b_0_eff": {
            "name": "default_tr_0.0_dc_r_0.19921875_g_0.19921875_b_0.19921875_sc_r_1.0_g_1.0_b_1.0_ec_r_0.0_g_0.0_b_0_mat",
            "technique": "technique1",
            "values": {
                "diffuse": [
                    0.199219,
                    0.199219,
                    0.199219,
                    1
                ],
                "emission": [
                    0,
                    0,
                    0,
                    1
                ]
            }
        },
        "default_tr_0.0_dc_r_0.3984375_g_0.24609375_b_0.09765625_sc_r_1.0_g_1.0_b_1.0_ec_r_0.0_g_0.0_b_0_eff": {
            "name": "default_tr_0.0_dc_r_0.3984375_g_0.24609375_b_0.09765625_sc_r_1.0_g_1.0_b_1.0_ec_r_0.0_g_0.0_b_0_mat",
            "technique": "technique1",
            "values": {
                "diffuse": [
                    0.398438,
                    0.246094,
                    0.0976563,
                    1
                ],
                "emission": [
                    0,
                    0,
                    0,
                    1
                ]
            }
        },
        "default_tr_0.0_dc_r_0.49609375_g_0.34765625_b_0.1484375_sc_r_1.0_g_1.0_b_1.0_ec_r_0.0_g_0.0_b_0_eff": {
            "name": "default_tr_0.0_dc_r_0.49609375_g_0.34765625_b_0.1484375_sc_r_1.0_g_1.0_b_1.0_ec_r_0.0_g_0.0_b_0_mat",
            "technique": "technique1",
            "values": {
                "diffuse": [
                    0.496094,
                    0.347656,
                    0.148438,
                    1
                ],
                "emission": [
                    0,
                    0,
                    0,
                    1
                ]
            }
        },
        "default_tr_0.0_dc_r_0.796875_g_0.69921875_b_0.59765625_sc_r_1.0_g_1.0_b_1.0_ec_r_0.0_g_0.0_b_0_eff": {
            "name": "default_tr_0.0_dc_r_0.796875_g_0.69921875_b_0.59765625_sc_r_1.0_g_1.0_b_1.0_ec_r_0.0_g_0.0_b_0_mat",
            "technique": "technique1",
            "values": {
                "diffuse": [
                    0.796875,
                    0.699219,
                    0.597656,
                    1
                ],
                "emission": [
                    0,
                    0,
                    0,
                    1
                ]
            }
        },
        "default_tr_0.0_dc_r_0.99609375_g_0.99609375_b_0.99609375_sc_r_1.0_g_1.0_b_1.0_ec_r_0.0_g_0.0_b_0_eff": {
            "name": "default_tr_0.0_dc_r_0.99609375_g_0.99609375_b_0.99609375_sc_r_1.0_g_1.0_b_1.0_ec_r_0.0_g_0.0_b_0_mat",
            "technique": "technique1",
            "values": {
                "diffuse": [
                    0.996094,
                    0.996094,
                    0.996094,
                    1
                ],
                "emission": [
                    0,
                    0,
                    0,
                    1
                ]
            }
        }
    },
    "meshes": {
        "geometry0": {
            "name": "geometry0",
            "primitives": [
                {
                    "attributes": {
                        "NORMAL": "accessor_109",
                        "POSITION": "accessor_107"
                    },
                    "indices": "accessor_87",
                    "material": "default_tr_0.0_dc_r_0.3984375_g_0.24609375_b_0.09765625_sc_r_1.0_g_1.0_b_1.0_ec_r_0.0_g_0.0_b_0_eff",
                    "mode": 4
                },
                {
                    "attributes": {
                        "NORMAL": "accessor_109",
                        "POSITION": "accessor_107"
                    },
                    "indices": "accessor_90",
                    "material": "default_ai_0.2_sh_0.2_tr_0.0_dc_r_0.8_g_0.8_b_0.8_sc_r_1.0_g_1.0_b_1.0_ec_r_0.0_g_0.0_b_0_eff",
                    "mode": 4
                },
                {
                    "attributes": {
                        "NORMAL": "accessor_109",
                        "POSITION": "accessor_107"
                    },
                    "indices": "accessor_93",
                    "material": "default_tr_0.0_dc_r_0.49609375_g_0.34765625_b_0.1484375_sc_r_1.0_g_1.0_b_1.0_ec_r_0.0_g_0.0_b_0_eff",
                    "mode": 4
                },
                {
                    "attributes": {
                        "NORMAL": "accessor_109",
                        "POSITION": "accessor_107"
                    },
                    "indices": "accessor_96",
                    "material": "default_tr_0.0_dc_r_0.796875_g_0.69921875_b_0.59765625_sc_r_1.0_g_1.0_b_1.0_ec_r_0.0_g_0.0_b_0_eff",
                    "mode": 4
                },
                {
                    "attributes": {
                        "NORMAL": "accessor_109",
                        "POSITION": "accessor_107"
                    },
                    "indices": "accessor_99",
                    "material": "default_tr_0.0_dc_r_0.19921875_g_0.19921875_b_0.19921875_sc_r_1.0_g_1.0_b_1.0_ec_r_0.0_g_0.0_b_0_eff",
                    "mode": 4
                },
                {
                    "attributes": {
                        "NORMAL": "accessor_109",
                        "POSITION": "accessor_107"
                    },
                    "indices": "accessor_102",
                    "material": "default_tr_0.0_dc_r_0.99609375_g_0.99609375_b_0.99609375_sc_r_1.0_g_1.0_b_1.0_ec_r_0.0_g_0.0_b_0_eff",
                    "mode": 4
                },
                {
                    "attributes": {
                        "POSITION": "accessor_107",
                        "TEXCOORD_0": "accessor_111"
                    },
                    "indices": "accessor_105",
                    "material": "_maerz-0_eff",
                    "mode": 4
                }
            ]
        }
    },
    "nodes": {
        "node_0": {
            "children": [],
            "matrix": [
                1,
                0,
                0,
                0,
                0,
                1,
                0,
                0,
                0,
                0,
                1,
                0,
                0,
                0,
                0,
                1
            ],
            "meshes": [
                "geometry0"
            ],
            "name": ""
        },
        "node_1": {
            "children": [
                "node_0"
            ],
            "matrix": [
                1,
                0,
                0,
                0,
                0,
                0,
                -1,
                0,
                0,
                1,
                0,
                0,
                0,
                0,
                0,
                1
            ],
            "name": "Y_UP_Transform"
        }
    },
    "programs": {
        "program_0": {
            "attributes": [
                "a_position",
                "a_texcoord0"
            ],
            "fragmentShader": "\\Daten\\test\\gltf_10\\Tiles\\0\\0\\221\\GMLID_0632464_192141_9680FS",
            "vertexShader": "\\Daten\\test\\gltf_10\\Tiles\\0\\0\\221\\GMLID_0632464_192141_9680VS"
        },
        "program_1": {
            "attributes": [
                "a_normal",
                "a_position"
            ],
            "fragmentShader": "\\Daten\\test\\gltf_10\\Tiles\\0\\0\\221\\GMLID_0632464_192141_9681FS",
            "vertexShader": "\\Daten\\test\\gltf_10\\Tiles\\0\\0\\221\\GMLID_0632464_192141_9681VS"
        }
    },
    "samplers": {
        "sampler_0": {
            "magFilter": 9729,
            "minFilter": 9729,
            "wrapS": 10497,
            "wrapT": 10497
        }
    },
    "scene": "defaultScene",
    "scenes": {
        "defaultScene": {
            "nodes": [
                "node_1"
            ]
        }
    },
    "shaders": {
        "\\Daten\\test\\gltf_10\\Tiles\\0\\0\\221\\GMLID_0632464_192141_9680FS": {
            "type": 35632,
            "uri": "data:text/plain;base64,"
        },
        "\\Daten\\test\\gltf_10\\Tiles\\0\\0\\221\\GMLID_0632464_192141_9680VS": {
            "type": 35633,
            "uri": "data:text/plain;base64,"
        },
        "\\Daten\\test\\gltf_10\\Tiles\\0\\0\\221\\GMLID_0632464_192141_9681FS": {
            "type": 35632,
            "uri": "data:text/plain;base64,"
        },
        "\\Daten\\test\\gltf_10\\Tiles\\0\\0\\221\\GMLID_0632464_192141_9681VS": {
            "type": 35633,
            "uri": "data:text/plain;base64,"
        }
    },
    "skins": {},
    "techniques": {
        "technique0": {
            "attributes": {
                "a_position": "position",
                "a_texcoord0": "texcoord0"
            },
            "parameters": {
                "diffuse": {
                    "type": 35678
                },
                "emission": {
                    "type": 35666
                },
                "modelViewMatrix": {
                    "semantic": "MODELVIEW",
                    "type": 35676
                },
                "position": {
                    "semantic": "POSITION",
                    "type": 35665
                },
                "projectionMatrix": {
                    "semantic": "PROJECTION",
                    "type": 35676
                },
                "texcoord0": {
                    "semantic": "TEXCOORD_0",
                    "type": 35664
                }
            },
            "program": "program_0",
            "states": {
                "enable": [
                    2929
                ]
            },
            "uniforms": {
                "u_diffuse": "diffuse",
                "u_emission": "emission",
                "u_modelViewMatrix": "modelViewMatrix",
                "u_projectionMatrix": "projectionMatrix"
            }
        },
        "technique1": {
            "attributes": {
                "a_normal": "normal",
                "a_position": "position"
            },
            "parameters": {
                "diffuse": {
                    "type": 35666
                },
                "emission": {
                    "type": 35666
                },
                "modelViewMatrix": {
                    "semantic": "MODELVIEW",
                    "type": 35676
                },
                "normal": {
                    "semantic": "NORMAL",
                    "type": 35665
                },
                "normalMatrix": {
                    "semantic": "MODELVIEWINVERSETRANSPOSE",
                    "type": 35675
                },
                "position": {
                    "semantic": "POSITION",
                    "type": 35665
                },
                "projectionMatrix": {
                    "semantic": "PROJECTION",
                    "type": 35676
                }
            },
            "program": "program_1",
            "states": {
                "enable": [
                    2929
                ]
            },
            "uniforms": {
                "u_diffuse": "diffuse",
                "u_emission": "emission",
                "u_modelViewMatrix": "modelViewMatrix",
                "u_normalMatrix": "normalMatrix",
                "u_projectionMatrix": "projectionMatrix"
            }
        }
    },
    "textures": {
        "texture__maerz-0_img": {
            "format": 6408,
            "internalFormat": 6408,
            "sampler": "sampler_0",
            "source": "_maerz-0_img",
            "target": 3553,
            "type": 5121
        }
    }
}