{
    "accessors": {
        "accessor_37": {
            "bufferView": "bufferView_49",
            "byteOffset": 0,
            "byteStride": 0,
            "componentType": 5123,
            "count": 4248,
            "type": "SCALAR"
        },
        "accessor_40": {
            "bufferView": "bufferView_49",
            "byteOffset": 8496,
            "byteStride": 0,
            "componentType": 5123,
            "count": 1284,
            "type": "SCALAR"
        },
        "accessor_43": {
            "bufferView": "bufferView_49",
            "byteOffset": 11064,
            "byteStride": 0,
            "componentType": 5123,
            "count": 132,
            "type": "SCALAR"
        },
        "accessor_45": {
            "bufferView": "bufferView_50",
            "byteOffset": 0,
            "byteStride": 12,
            "componentType": 5126,
            "count": 3538,
            "max": [
                5.05831,
                1.72703,
                9.31278
            ],
            "min": [
                -29.5317,
                -25.0803,
                0
            ],
            "type": "VEC3"
        },
        "accessor_47": {
            "bufferView": "bufferView_50",
            "byteOffset": 42456,
            "byteStride": 8,
            "componentType": 5126,
            "count": 3538,
            "max": [
                39.1303,
                3.89992
            ],
            "min": [
                -39.1303,
                -38.1304
            ],
            "type": "VEC2"
        }
    },
    "animations": {},
    "asset": {
        "generator": "collada2gltf@d78daf1e7950e6c22fe6bec1d07965e8a302e90d",
        "premultipliedAlpha": true,
        "profile": {
            "api": "WebGL",
            "version": "1.0.2"
        },
        "version": 1
    },
    "bufferViews": {
        "bufferView_49": {
            "buffer": "\\Daten\\test\\gltf_10\\Tiles\\0\\0\\14\\GMLID_BUI51891_765_738",
            "byteLength": 11328,
            "byteOffset": 0,
            "target": 34963
        },
        "bufferView_50": {
            "buffer": "\\Daten\\test\\gltf_10\\Tiles\\0\\0\\14\\GMLID_BUI51891_765_738",
            "byteLength": 70760,
            "byteOffset": 11328,
            "target": 34962
        }
    },
    "buffers": {
        "\\Daten\\test\\gltf_10\\Tiles\\0\\0\\14\\GMLID_BUI51891_765_738": {
            "byteLength": 82088,
            "type": "arraybuffer",
            "uri": "data:application/octet-stream;base64,"
        }
    },
    "images": {
        "_bruecke-beton_img": {
            "name": "_bruecke-beton_img",
            "uri": "_bruecke-beton.jpeg"
        },
        "_metal_rusted_img": {
            "name": "_metal_rusted_img",
            "uri": "_metal_rusted.jpeg"
        },
        "_metal_steel_textured_img": {
            "name": "_metal_steel_textured_img",
            "uri": "_metal_steel_textured.jpeg"
        }
    },
    "materials": {
        "_bruecke-beton_eff": {
            "name": "_bruecke-beton_mat",
            "technique": "technique0",
            "values": {
                "diffuse": "texture__bruecke-beton_img",
                "emission": [
                    0,
                    0,
                    0,
                    1
                ]
            }
        },
        "_metal_rusted_eff": {
            "name": "_metal_rusted_mat",
            "technique": "technique0",
            "values": {
                "diffuse": "texture__metal_rusted_img",
                "emission": [
                    0,
                    0,
                    0,
                    1
                ]
            }
        },
        "_metal_steel_textured_eff": {
            "name": "_metal_steel_textured_mat",
            "technique": "technique0",
            "values": {
                "diffuse": "texture__metal_steel_textured_img",
                "emission": [
                    0,
                    0,
                    0,
                    1
                ]
            }
        }
    },
    "meshes": {
        "geometry0": {
            "name": "geometry0",
            "primitives": [
                {
                    "attributes": {
                        "POSITION": "accessor_45",
                        "TEXCOORD_0": "accessor_47"
                    },
                    "indices": "accessor_37",
                    "material": "_metal_steel_textured_eff",
                    "mode": 4
                },
                {
                    "attributes": {
                        "POSITION": "accessor_45",
                        "TEXCOORD_0": "accessor_47"
                    },
                    "indices": "accessor_40",
                    "material": "_metal_rusted_eff",
                    "mode": 4
                },
                {
                    "attributes": {
                        "POSITION": "accessor_45",
                        "TEXCOORD_0": "accessor_47"
                    },
                    "indices": "accessor_43",
                    "material": "_bruecke-beton_eff",
                    "mode": 4
                }
            ]
        }
    },
    "nodes": {
        "node_0": {
            "children": [],
            "matrix": [
                1,
                0,
                0,
                0,
                0,
                1,
                0,
                0,
                0,
                0,
                1,
                0,
                0,
                0,
                0,
                1
            ],
            "meshes": [
                "geometry0"
            ],
            "name": ""
        },
        "node_1": {
            "children": [
                "node_0"
            ],
            "matrix": [
                1,
                0,
                0,
                0,
                0,
                0,
                -1,
                0,
                0,
                1,
                0,
                0,
                0,
                0,
                0,
                1
            ],
            "name": "Y_UP_Transform"
        }
    },
    "programs": {
        "program_0": {
            "attributes": [
                "a_position",
                "a_texcoord0"
            ],
            "fragmentShader": "\\Daten\\test\\gltf_10\\Tiles\\0\\0\\14\\GMLID_BUI51891_765_7380FS",
            "vertexShader": "\\Daten\\test\\gltf_10\\Tiles\\0\\0\\14\\GMLID_BUI51891_765_7380VS"
        }
    },
    "samplers": {
        "sampler_0": {
            "magFilter": 9729,
            "minFilter": 9729,
            "wrapS": 10497,
            "wrapT": 10497
        }
    },
    "scene": "defaultScene",
    "scenes": {
        "defaultScene": {
            "nodes": [
                "node_1"
            ]
        }
    },
    "shaders": {
        "\\Daten\\test\\gltf_10\\Tiles\\0\\0\\14\\GMLID_BUI51891_765_7380FS": {
            "type": 35632,
            "uri": "data:text/plain;base64,"
        },
        "\\Daten\\test\\gltf_10\\Tiles\\0\\0\\14\\GMLID_BUI51891_765_7380VS": {
            "type": 35633,
            "uri": "data:text/plain;base64,"
        }
    },
    "skins": {},
    "techniques": {
        "technique0": {
            "attributes": {
                "a_position": "position",
                "a_texcoord0": "texcoord0"
            },
            "parameters": {
                "diffuse": {
                    "type": 35678
                },
                "emission": {
                    "type": 35666
                },
                "modelViewMatrix": {
                    "semantic": "MODELVIEW",
                    "type": 35676
                },
                "position": {
                    "semantic": "POSITION",
                    "type": 35665
                },
                "projectionMatrix": {
                    "semantic": "PROJECTION",
                    "type": 35676
                },
                "texcoord0": {
                    "semantic": "TEXCOORD_0",
                    "type": 35664
                }
            },
            "program": "program_0",
            "states": {
                "enable": [
                    2929
                ]
            },
            "uniforms": {
                "u_diffuse": "diffuse",
                "u_emission": "emission",
                "u_modelViewMatrix": "modelViewMatrix",
                "u_projectionMatrix": "projectionMatrix"
            }
        }
    },
    "textures": {
        "texture__bruecke-beton_img": {
            "format": 6408,
            "internalFormat": 6408,
            "sampler": "sampler_0",
            "source": "_bruecke-beton_img",
            "target": 3553,
            "type": 5121
        },
        "texture__metal_rusted_img": {
            "format": 6408,
            "internalFormat": 6408,
            "sampler": "sampler_0",
            "source": "_metal_rusted_img",
            "target": 3553,
            "type": 5121
        },
        "texture__metal_steel_textured_img": {
            "format": 6408,
            "internalFormat": 6408,
            "sampler": "sampler_0",
            "source": "_metal_steel_textured_img",
            "target": 3553,
            "type": 5121
        }
    }
}