{
    "accessors": {
        "accessor_39": {
            "bufferView": "bufferView_53",
            "byteOffset": 0,
            "byteStride": 0,
            "componentType": 5123,
            "count": 180,
            "type": "SCALAR"
        },
        "accessor_42": {
            "bufferView": "bufferView_53",
            "byteOffset": 360,
            "byteStride": 0,
            "componentType": 5123,
            "count": 42,
            "type": "SCALAR"
        },
        "accessor_45": {
            "bufferView": "bufferView_53",
            "byteOffset": 444,
            "byteStride": 0,
            "componentType": 5123,
            "count": 138,
            "type": "SCALAR"
        },
        "accessor_47": {
            "bufferView": "bufferView_54",
            "byteOffset": 0,
            "byteStride": 12,
            "componentType": 5126,
            "count": 192,
            "max": [
                3.41408,
                3.95089,
                15.0667
            ],
            "min": [
                -3.17076,
                -2.63395,
                0
            ],
            "type": "VEC3"
        },
        "accessor_49": {
            "bufferView": "bufferView_54",
            "byteOffset": 2304,
            "byteStride": 12,
            "componentType": 5126,
            "count": 192,
            "max": [
                0.999138,
                0.999138,
                1
            ],
            "min": [
                -0.999138,
                -0.999139,
                -1
            ],
            "type": "VEC3"
        },
        "accessor_51": {
            "bufferView": "bufferView_54",
            "byteOffset": 4608,
            "byteStride": 8,
            "componentType": 5126,
            "count": 192,
            "max": [
                0.0716291,
                1
            ],
            "min": [
                -0.0716295,
                0.199
            ],
            "type": "VEC2"
        }
    },
    "animations": {},
    "asset": {
        "generator": "collada2gltf@d78daf1e7950e6c22fe6bec1d07965e8a302e90d",
        "premultipliedAlpha": true,
        "profile": {
            "api": "WebGL",
            "version": "1.0.2"
        },
        "version": 1
    },
    "bufferViews": {
        "bufferView_53": {
            "buffer": "\\Daten\\test\\gltf_10\\Tiles\\0\\0\\57\\GMLID_SO0200811_525_4986",
            "byteLength": 720,
            "byteOffset": 0,
            "target": 34963
        },
        "bufferView_54": {
            "buffer": "\\Daten\\test\\gltf_10\\Tiles\\0\\0\\57\\GMLID_SO0200811_525_4986",
            "byteLength": 6144,
            "byteOffset": 720,
            "target": 34962
        }
    },
    "buffers": {
        "\\Daten\\test\\gltf_10\\Tiles\\0\\0\\57\\GMLID_SO0200811_525_4986": {
            "byteLength": 6864,
            "type": "arraybuffer",
            "uri": "data:application/octet-stream;base64,"
        }
    },
    "images": {
        "_Vegetation_Juniper2_img": {
            "name": "_Vegetation_Juniper2_img",
            "uri": "_Vegetation_Juniper2.jpg"
        }
    },
    "materials": {
        "_Vegetation_Juniper2_eff": {
            "name": "_Vegetation_Juniper2_mat",
            "technique": "technique0",
            "values": {
                "diffuse": "texture__Vegetation_Juniper2_img",
                "emission": [
                    0,
                    0,
                    0,
                    1
                ]
            }
        },
        "default_ai_0.2_sh_0.2_tr_0.21568627450980393_dc_r_0.2_g_1.0_b_0.2_sc_r_1.0_g_1.0_b_1.0_ec_r_0.0_g_0.0_b_0_eff": {
            "name": "default_ai_0.2_sh_0.2_tr_0.21568627450980393_dc_r_0.2_g_1.0_b_0.2_sc_r_1.0_g_1.0_b_1.0_ec_r_0.0_g_0.0_b_0_mat",
            "technique": "technique1",
            "values": {
                "diffuse": [
                    0.2,
                    1,
                    0.2,
                    1
                ],
                "emission": [
                    0,
                    0,
                    0,
                    1
                ],
                "transparency": 0.784314
            }
        },
        "default_tr_0.0_dc_r_0.49609375_g_0.4296875_b_0.296875_sc_r_1.0_g_1.0_b_1.0_ec_r_0.0_g_0.0_b_0_eff": {
            "name": "default_tr_0.0_dc_r_0.49609375_g_0.4296875_b_0.296875_sc_r_1.0_g_1.0_b_1.0_ec_r_0.0_g_0.0_b_0_mat",
            "technique": "technique2",
            "values": {
                "diffuse": [
                    0.496094,
                    0.429688,
                    0.296875,
                    1
                ],
                "emission": [
                    0,
                    0,
                    0,
                    1
                ]
            }
        }
    },
    "meshes": {
        "geometry0": {
            "name": "geometry0",
            "primitives": [
                {
                    "attributes": {
                        "NORMAL": "accessor_49",
                        "POSITION": "accessor_47"
                    },
                    "indices": "accessor_39",
                    "material": "default_tr_0.0_dc_r_0.49609375_g_0.4296875_b_0.296875_sc_r_1.0_g_1.0_b_1.0_ec_r_0.0_g_0.0_b_0_eff",
                    "mode": 4
                },
                {
                    "attributes": {
                        "NORMAL": "accessor_49",
                        "POSITION": "accessor_47"
                    },
                    "indices": "accessor_42",
                    "material": "default_ai_0.2_sh_0.2_tr_0.21568627450980393_dc_r_0.2_g_1.0_b_0.2_sc_r_1.0_g_1.0_b_1.0_ec_r_0.0_g_0.0_b_0_eff",
                    "mode": 4
                },
                {
                    "attributes": {
                        "POSITION": "accessor_47",
                        "TEXCOORD_0": "accessor_51"
                    },
                    "indices": "accessor_45",
                    "material": "_Vegetation_Juniper2_eff",
                    "mode": 4
                }
            ]
        }
    },
    "nodes": {
        "node_0": {
            "children": [],
            "matrix": [
                1,
                0,
                0,
                0,
                0,
                1,
                0,
                0,
                0,
                0,
                1,
                0,
                0,
                0,
                0,
                1
            ],
            "meshes": [
                "geometry0"
            ],
            "name": ""
        },
        "node_1": {
            "children": [
                "node_0"
            ],
            "matrix": [
                1,
                0,
                0,
                0,
                0,
                0,
                -1,
                0,
                0,
                1,
                0,
                0,
                0,
                0,
                0,
                1
            ],
            "name": "Y_UP_Transform"
        }
    },
    "programs": {
        "program_0": {
            "attributes": [
                "a_position",
                "a_texcoord0"
            ],
            "fragmentShader": "\\Daten\\test\\gltf_10\\Tiles\\0\\0\\57\\GMLID_SO0200811_525_49860FS",
            "vertexShader": "\\Daten\\test\\gltf_10\\Tiles\\0\\0\\57\\GMLID_SO0200811_525_49860VS"
        },
        "program_1": {
            "attributes": [
                "a_normal",
                "a_position"
            ],
            "fragmentShader": "\\Daten\\test\\gltf_10\\Tiles\\0\\0\\57\\GMLID_SO0200811_525_49861FS",
            "vertexShader": "\\Daten\\test\\gltf_10\\Tiles\\0\\0\\57\\GMLID_SO0200811_525_49861VS"
        },
        "program_2": {
            "attributes": [
                "a_normal",
                "a_position"
            ],
            "fragmentShader": "\\Daten\\test\\gltf_10\\Tiles\\0\\0\\57\\GMLID_SO0200811_525_49862FS",
            "vertexShader": "\\Daten\\test\\gltf_10\\Tiles\\0\\0\\57\\GMLID_SO0200811_525_49862VS"
        }
    },
    "samplers": {
        "sampler_0": {
            "magFilter": 9729,
            "minFilter": 9729,
            "wrapS": 10497,
            "wrapT": 10497
        }
    },
    "scene": "defaultScene",
    "scenes": {
        "defaultScene": {
            "nodes": [
                "node_1"
            ]
        }
    },
    "shaders": {
        "\\Daten\\test\\gltf_10\\Tiles\\0\\0\\57\\GMLID_SO0200811_525_49860FS": {
            "type": 35632,
            "uri": "data:text/plain;base64,"
        },
        "\\Daten\\test\\gltf_10\\Tiles\\0\\0\\57\\GMLID_SO0200811_525_49860VS": {
            "type": 35633,
            "uri": "data:text/plain;base64,"
        },
        "\\Daten\\test\\gltf_10\\Tiles\\0\\0\\57\\GMLID_SO0200811_525_49861FS": {
            "type": 35632,
            "uri": "data:text/plain;base64,"
        },
        "\\Daten\\test\\gltf_10\\Tiles\\0\\0\\57\\GMLID_SO0200811_525_49861VS": {
            "type": 35633,
            "uri": "data:text/plain;base64,"
        },
        "\\Daten\\test\\gltf_10\\Tiles\\0\\0\\57\\GMLID_SO0200811_525_49862FS": {
            "type": 35632,
            "uri": "data:text/plain;base64,"
        },
        "\\Daten\\test\\gltf_10\\Tiles\\0\\0\\57\\GMLID_SO0200811_525_49862VS": {
            "type": 35633,
            "uri": "data:text/plain;base64,"
        }
    },
    "skins": {},
    "techniques": {
        "technique0": {
            "attributes": {
                "a_position": "position",
                "a_texcoord0": "texcoord0"
            },
            "parameters": {
                "diffuse": {
                    "type": 35678
                },
                "emission": {
                    "type": 35666
                },
                "modelViewMatrix": {
                    "semantic": "MODELVIEW",
                    "type": 35676
                },
                "position": {
                    "semantic": "POSITION",
                    "type": 35665
                },
                "projectionMatrix": {
                    "semantic": "PROJECTION",
                    "type": 35676
                },
                "texcoord0": {
                    "semantic": "TEXCOORD_0",
                    "type": 35664
                }
            },
            "program": "program_0",
            "states": {
                "enable": [
                    2929
                ]
            },
            "uniforms": {
                "u_diffuse": "diffuse",
                "u_emission": "emission",
                "u_modelViewMatrix": "modelViewMatrix",
                "u_projectionMatrix": "projectionMatrix"
            }
        },
        "technique1": {
            "attributes": {
                "a_normal": "normal",
                "a_position": "position"
            },
            "parameters": {
                "diffuse": {
                    "type": 35666
                },
                "emission": {
                    "type": 35666
                },
                "modelViewMatrix": {
                    "semantic": "MODELVIEW",
                    "type": 35676
                },
                "normal": {
                    "semantic": "NORMAL",
                    "type": 35665
                },
                "normalMatrix": {
                    "semantic": "MODELVIEWINVERSETRANSPOSE",
                    "type": 35675
                },
                "position": {
                    "semantic": "POSITION",
                    "type": 35665
                },
                "projectionMatrix": {
                    "semantic": "PROJECTION",
                    "type": 35676
                },
                "transparency": {
                    "type": 5126
                }
            },
            "program": "program_1",
            "states": {
                "enable": [
                    2929,
                    3042
                ],
                "functions": {
                    "blendEquationSeparate": [
                        32774,
                        32774
                    ],
                    "blendFuncSeparate": [
                        1,
                        771,
                        1,
                        771
                    ],
                    "depthMask": false
                }
            },
            "uniforms": {
                "u_diffuse": "diffuse",
                "u_emission": "emission",
                "u_modelViewMatrix": "modelViewMatrix",
                "u_normalMatrix": "normalMatrix",
                "u_projectionMatrix": "projectionMatrix",
                "u_transparency": "transparency"
            }
        },
        "technique2": {
            "attributes": {
                "a_normal": "normal",
                "a_position": "position"
            },
            "parameters": {
                "diffuse": {
                    "type": 35666
                },
                "emission": {
                    "type": 35666
                },
                "modelViewMatrix": {
                    "semantic": "MODELVIEW",
                    "type": 35676
                },
                "normal": {
                    "semantic": "NORMAL",
                    "type": 35665
                },
                "normalMatrix": {
                    "semantic": "MODELVIEWINVERSETRANSPOSE",
                    "type": 35675
                },
                "position": {
                    "semantic": "POSITION",
                    "type": 35665
                },
                "projectionMatrix": {
                    "semantic": "PROJECTION",
                    "type": 35676
                }
            },
            "program": "program_2",
            "states": {
                "enable": [
                    2929
                ]
            },
            "uniforms": {
                "u_diffuse": "diffuse",
                "u_emission": "emission",
                "u_modelViewMatrix": "modelViewMatrix",
                "u_normalMatrix": "normalMatrix",
                "u_projectionMatrix": "projectionMatrix"
            }
        }
    },
    "textures": {
        "texture__Vegetation_Juniper2_img": {
            "format": 6408,
            "internalFormat": 6408,
            "sampler": "sampler_0",
            "source": "_Vegetation_Juniper2_img",
            "target": 3553,
            "type": 5121
        }
    }
}