{
    "accessors": {
        "accessor_107": {
            "bufferView": "bufferView_139",
            "byteOffset": 0,
            "byteStride": 0,
            "componentType": 5123,
            "count": 102,
            "type": "SCALAR"
        },
        "accessor_110": {
            "bufferView": "bufferView_139",
            "byteOffset": 204,
            "byteStride": 0,
            "componentType": 5123,
            "count": 204,
            "type": "SCALAR"
        },
        "accessor_113": {
            "bufferView": "bufferView_139",
            "byteOffset": 612,
            "byteStride": 0,
            "componentType": 5123,
            "count": 390,
            "type": "SCALAR"
        },
        "accessor_116": {
            "bufferView": "bufferView_139",
            "byteOffset": 1392,
            "byteStride": 0,
            "componentType": 5123,
            "count": 651,
            "type": "SCALAR"
        },
        "accessor_119": {
            "bufferView": "bufferView_139",
            "byteOffset": 2694,
            "byteStride": 0,
            "componentType": 5123,
            "count": 6,
            "type": "SCALAR"
        },
        "accessor_122": {
            "bufferView": "bufferView_139",
            "byteOffset": 2706,
            "byteStride": 0,
            "componentType": 5123,
            "count": 123,
            "type": "SCALAR"
        },
        "accessor_125": {
            "bufferView": "bufferView_139",
            "byteOffset": 2952,
            "byteStride": 0,
            "componentType": 5123,
            "count": 30,
            "type": "SCALAR"
        },
        "accessor_128": {
            "bufferView": "bufferView_139",
            "byteOffset": 3012,
            "byteStride": 0,
            "componentType": 5123,
            "count": 756,
            "type": "SCALAR"
        },
        "accessor_131": {
            "bufferView": "bufferView_139",
            "byteOffset": 4524,
            "byteStride": 0,
            "componentType": 5123,
            "count": 18,
            "type": "SCALAR"
        },
        "accessor_133": {
            "bufferView": "bufferView_140",
            "byteOffset": 0,
            "byteStride": 12,
            "componentType": 5126,
            "count": 1368,
            "max": [
                4.59e-005,
                3.00523,
                8.17863
            ],
            "min": [
                -16.6304,
                -22.7937,
                0
            ],
            "type": "VEC3"
        },
        "accessor_135": {
            "bufferView": "bufferView_140",
            "byteOffset": 16416,
            "byteStride": 12,
            "componentType": 5126,
            "count": 1368,
            "max": [
                0.979018,
                0.979027,
                1
            ],
            "min": [
                -0.979018,
                -0.97902,
                -1
            ],
            "type": "VEC3"
        },
        "accessor_137": {
            "bufferView": "bufferView_140",
            "byteOffset": 32832,
            "byteStride": 8,
            "componentType": 5126,
            "count": 1368,
            "max": [
                12.9629,
                12.5473
            ],
            "min": [
                -12.9629,
                -13.9683
            ],
            "type": "VEC2"
        }
    },
    "animations": {},
    "asset": {
        "generator": "collada2gltf@d78daf1e7950e6c22fe6bec1d07965e8a302e90d",
        "premultipliedAlpha": true,
        "profile": {
            "api": "WebGL",
            "version": "1.0.2"
        },
        "version": 1
    },
    "bufferViews": {
        "bufferView_139": {
            "buffer": "\\Daten\\test\\gltf_10\\Tiles\\0\\0\\74\\GMLID_0528986_170479_94",
            "byteLength": 4560,
            "byteOffset": 0,
            "target": 34963
        },
        "bufferView_140": {
            "buffer": "\\Daten\\test\\gltf_10\\Tiles\\0\\0\\74\\GMLID_0528986_170479_94",
            "byteLength": 43776,
            "byteOffset": 4560,
            "target": 34962
        }
    },
    "buffers": {
        "\\Daten\\test\\gltf_10\\Tiles\\0\\0\\74\\GMLID_0528986_170479_94": {
            "byteLength": 48336,
            "type": "arraybuffer",
            "uri": "data:application/octet-stream;base64,"
        }
    },
    "images": {
        "_asphalt_new_cf_img": {
            "name": "_asphalt_new_cf_img",
            "uri": "_asphalt_new_cf.jpeg"
        },
        "_concrete_form_4x8_cf_img": {
            "name": "_concrete_form_4x8_cf_img",
            "uri": "_concrete_form_4x8_cf.jpeg"
        },
        "_maerz-0_cf_img": {
            "name": "_maerz-0_cf_img",
            "uri": "_maerz-0_cf.jpeg"
        },
        "_roofing_slate_dark_cf_img": {
            "name": "_roofing_slate_dark_cf_img",
            "uri": "_roofing_slate_dark_cf.jpeg"
        },
        "_wood_lumber_buttjoined_cf_img": {
            "name": "_wood_lumber_buttjoined_cf_img",
            "uri": "_wood_lumber_buttjoined_cf.jpeg"
        }
    },
    "materials": {
        "_asphalt_new_cf_eff": {
            "name": "_asphalt_new_cf_mat",
            "technique": "technique0",
            "values": {
                "diffuse": "texture__asphalt_new_cf_img",
                "emission": [
                    0,
                    0,
                    0,
                    1
                ]
            }
        },
        "_concrete_form_4x8_cf_eff": {
            "name": "_concrete_form_4x8_cf_mat",
            "technique": "technique0",
            "values": {
                "diffuse": "texture__concrete_form_4x8_cf_img",
                "emission": [
                    0,
                    0,
                    0,
                    1
                ]
            }
        },
        "_maerz-0_cf_eff": {
            "name": "_maerz-0_cf_mat",
            "technique": "technique0",
            "values": {
                "diffuse": "texture__maerz-0_cf_img",
                "emission": [
                    0,
                    0,
                    0,
                    1
                ]
            }
        },
        "_roofing_slate_dark_cf_eff": {
            "name": "_roofing_slate_dark_cf_mat",
            "technique": "technique0",
            "values": {
                "diffuse": "texture__roofing_slate_dark_cf_img",
                "emission": [
                    0,
                    0,
                    0,
                    1
                ]
            }
        },
        "_wood_lumber_buttjoined_cf_eff": {
            "name": "_wood_lumber_buttjoined_cf_mat",
            "technique": "technique0",
            "values": {
                "diffuse": "texture__wood_lumber_buttjoined_cf_img",
                "emission": [
                    0,
                    0,
                    0,
                    1
                ]
            }
        },
        "default_ai_0.2_sh_0.2_tr_0.0_dc_r_0.8_g_0.8_b_0.8_sc_r_1.0_g_1.0_b_1.0_ec_r_0.0_g_0.0_b_0_eff": {
            "name": "default_ai_0.2_sh_0.2_tr_0.0_dc_r_0.8_g_0.8_b_0.8_sc_r_1.0_g_1.0_b_1.0_ec_r_0.0_g_0.0_b_0_mat",
            "technique": "technique1",
            "values": {
                "diffuse": [
                    0.8,
                    0.8,
                    0.8,
                    1
                ],
                "emission": [
                    0,
                    0,
                    0,
                    1
                ]
            }
        },
        "default_tr_0.0_dc_r_0.3984375_g_0.3984375_b_0.3984375_sc_r_1.0_g_1.0_b_1.0_ec_r_0.0_g_0.0_b_0_eff": {
            "name": "default_tr_0.0_dc_r_0.3984375_g_0.3984375_b_0.3984375_sc_r_1.0_g_1.0_b_1.0_ec_r_0.0_g_0.0_b_0_mat",
            "technique": "technique1",
            "values": {
                "diffuse": [
                    0.398438,
                    0.398438,
                    0.398438,
                    1
                ],
                "emission": [
                    0,
                    0,
                    0,
                    1
                ]
            }
        },
        "default_tr_0.0_dc_r_0.69921875_g_0.69921875_b_0.69921875_sc_r_1.0_g_1.0_b_1.0_ec_r_0.0_g_0.0_b_0_eff": {
            "name": "default_tr_0.0_dc_r_0.69921875_g_0.69921875_b_0.69921875_sc_r_1.0_g_1.0_b_1.0_ec_r_0.0_g_0.0_b_0_mat",
            "technique": "technique1",
            "values": {
                "diffuse": [
                    0.699219,
                    0.699219,
                    0.699219,
                    1
                ],
                "emission": [
                    0,
                    0,
                    0,
                    1
                ]
            }
        },
        "default_tr_0.0_dc_r_0.796875_g_0.796875_b_0.796875_sc_r_1.0_g_1.0_b_1.0_ec_r_0.0_g_0.0_b_0_eff": {
            "name": "default_tr_0.0_dc_r_0.796875_g_0.796875_b_0.796875_sc_r_1.0_g_1.0_b_1.0_ec_r_0.0_g_0.0_b_0_mat",
            "technique": "technique1",
            "values": {
                "diffuse": [
                    0.796875,
                    0.796875,
                    0.796875,
                    1
                ],
                "emission": [
                    0,
                    0,
                    0,
                    1
                ]
            }
        }
    },
    "meshes": {
        "geometry0": {
            "name": "geometry0",
            "primitives": [
                {
                    "attributes": {
                        "NORMAL": "accessor_135",
                        "POSITION": "accessor_133"
                    },
                    "indices": "accessor_107",
                    "material": "default_ai_0.2_sh_0.2_tr_0.0_dc_r_0.8_g_0.8_b_0.8_sc_r_1.0_g_1.0_b_1.0_ec_r_0.0_g_0.0_b_0_eff",
                    "mode": 4
                },
                {
                    "attributes": {
                        "NORMAL": "accessor_135",
                        "POSITION": "accessor_133"
                    },
                    "indices": "accessor_110",
                    "material": "default_tr_0.0_dc_r_0.3984375_g_0.3984375_b_0.3984375_sc_r_1.0_g_1.0_b_1.0_ec_r_0.0_g_0.0_b_0_eff",
                    "mode": 4
                },
                {
                    "attributes": {
                        "NORMAL": "accessor_135",
                        "POSITION": "accessor_133"
                    },
                    "indices": "accessor_113",
                    "material": "default_tr_0.0_dc_r_0.69921875_g_0.69921875_b_0.69921875_sc_r_1.0_g_1.0_b_1.0_ec_r_0.0_g_0.0_b_0_eff",
                    "mode": 4
                },
                {
                    "attributes": {
                        "NORMAL": "accessor_135",
                        "POSITION": "accessor_133"
                    },
                    "indices": "accessor_116",
                    "material": "default_tr_0.0_dc_r_0.796875_g_0.796875_b_0.796875_sc_r_1.0_g_1.0_b_1.0_ec_r_0.0_g_0.0_b_0_eff",
                    "mode": 4
                },
                {
                    "attributes": {
                        "POSITION": "accessor_133",
                        "TEXCOORD_0": "accessor_137"
                    },
                    "indices": "accessor_119",
                    "material": "_asphalt_new_cf_eff",
                    "mode": 4
                },
                {
                    "attributes": {
                        "POSITION": "accessor_133",
                        "TEXCOORD_0": "accessor_137"
                    },
                    "indices": "accessor_122",
                    "material": "_wood_lumber_buttjoined_cf_eff",
                    "mode": 4
                },
                {
                    "attributes": {
                        "POSITION": "accessor_133",
                        "TEXCOORD_0": "accessor_137"
                    },
                    "indices": "accessor_125",
                    "material": "_roofing_slate_dark_cf_eff",
                    "mode": 4
                },
                {
                    "attributes": {
                        "POSITION": "accessor_133",
                        "TEXCOORD_0": "accessor_137"
                    },
                    "indices": "accessor_128",
                    "material": "_concrete_form_4x8_cf_eff",
                    "mode": 4
                },
                {
                    "attributes": {
                        "POSITION": "accessor_133",
                        "TEXCOORD_0": "accessor_137"
                    },
                    "indices": "accessor_131",
                    "material": "_maerz-0_cf_eff",
                    "mode": 4
                }
            ]
        }
    },
    "nodes": {
        "node_0": {
            "children": [],
            "matrix": [
                1,
                0,
                0,
                0,
                0,
                1,
                0,
                0,
                0,
                0,
                1,
                0,
                0,
                0,
                0,
                1
            ],
            "meshes": [
                "geometry0"
            ],
            "name": ""
        },
        "node_1": {
            "children": [
                "node_0"
            ],
            "matrix": [
                1,
                0,
                0,
                0,
                0,
                0,
                -1,
                0,
                0,
                1,
                0,
                0,
                0,
                0,
                0,
                1
            ],
            "name": "Y_UP_Transform"
        }
    },
    "programs": {
        "program_0": {
            "attributes": [
                "a_position",
                "a_texcoord0"
            ],
            "fragmentShader": "\\Daten\\test\\gltf_10\\Tiles\\0\\0\\74\\GMLID_0528986_170479_940FS",
            "vertexShader": "\\Daten\\test\\gltf_10\\Tiles\\0\\0\\74\\GMLID_0528986_170479_940VS"
        },
        "program_1": {
            "attributes": [
                "a_normal",
                "a_position"
            ],
            "fragmentShader": "\\Daten\\test\\gltf_10\\Tiles\\0\\0\\74\\GMLID_0528986_170479_941FS",
            "vertexShader": "\\Daten\\test\\gltf_10\\Tiles\\0\\0\\74\\GMLID_0528986_170479_941VS"
        }
    },
    "samplers": {
        "sampler_0": {
            "magFilter": 9729,
            "minFilter": 9729,
            "wrapS": 10497,
            "wrapT": 10497
        }
    },
    "scene": "defaultScene",
    "scenes": {
        "defaultScene": {
            "nodes": [
                "node_1"
            ]
        }
    },
    "shaders": {
        "\\Daten\\test\\gltf_10\\Tiles\\0\\0\\74\\GMLID_0528986_170479_940FS": {
            "type": 35632,
            "uri": "data:text/plain;base64,"
        },
        "\\Daten\\test\\gltf_10\\Tiles\\0\\0\\74\\GMLID_0528986_170479_940VS": {
            "type": 35633,
            "uri": "data:text/plain;base64,"
        },
        "\\Daten\\test\\gltf_10\\Tiles\\0\\0\\74\\GMLID_0528986_170479_941FS": {
            "type": 35632,
            "uri": "data:text/plain;base64,"
        },
        "\\Daten\\test\\gltf_10\\Tiles\\0\\0\\74\\GMLID_0528986_170479_941VS": {
            "type": 35633,
            "uri": "data:text/plain;base64,"
        }
    },
    "skins": {},
    "techniques": {
        "technique0": {
            "attributes": {
                "a_position": "position",
                "a_texcoord0": "texcoord0"
            },
            "parameters": {
                "diffuse": {
                    "type": 35678
                },
                "emission": {
                    "type": 35666
                },
                "modelViewMatrix": {
                    "semantic": "MODELVIEW",
                    "type": 35676
                },
                "position": {
                    "semantic": "POSITION",
                    "type": 35665
                },
                "projectionMatrix": {
                    "semantic": "PROJECTION",
                    "type": 35676
                },
                "texcoord0": {
                    "semantic": "TEXCOORD_0",
                    "type": 35664
                }
            },
            "program": "program_0",
            "states": {
                "enable": [
                    2929
                ]
            },
            "uniforms": {
                "u_diffuse": "diffuse",
                "u_emission": "emission",
                "u_modelViewMatrix": "modelViewMatrix",
                "u_projectionMatrix": "projectionMatrix"
            }
        },
        "technique1": {
            "attributes": {
                "a_normal": "normal",
                "a_position": "position"
            },
            "parameters": {
                "diffuse": {
                    "type": 35666
                },
                "emission": {
                    "type": 35666
                },
                "modelViewMatrix": {
                    "semantic": "MODELVIEW",
                    "type": 35676
                },
                "normal": {
                    "semantic": "NORMAL",
                    "type": 35665
                },
                "normalMatrix": {
                    "semantic": "MODELVIEWINVERSETRANSPOSE",
                    "type": 35675
                },
                "position": {
                    "semantic": "POSITION",
                    "type": 35665
                },
                "projectionMatrix": {
                    "semantic": "PROJECTION",
                    "type": 35676
                }
            },
            "program": "program_1",
            "states": {
                "enable": [
                    2929
                ]
            },
            "uniforms": {
                "u_diffuse": "diffuse",
                "u_emission": "emission",
                "u_modelViewMatrix": "modelViewMatrix",
                "u_normalMatrix": "normalMatrix",
                "u_projectionMatrix": "projectionMatrix"
            }
        }
    },
    "textures": {
        "texture__asphalt_new_cf_img": {
            "format": 6408,
            "internalFormat": 6408,
            "sampler": "sampler_0",
            "source": "_asphalt_new_cf_img",
            "target": 3553,
            "type": 5121
        },
        "texture__concrete_form_4x8_cf_img": {
            "format": 6408,
            "internalFormat": 6408,
            "sampler": "sampler_0",
            "source": "_concrete_form_4x8_cf_img",
            "target": 3553,
            "type": 5121
        },
        "texture__maerz-0_cf_img": {
            "format": 6408,
            "internalFormat": 6408,
            "sampler": "sampler_0",
            "source": "_maerz-0_cf_img",
            "target": 3553,
            "type": 5121
        },
        "texture__roofing_slate_dark_cf_img": {
            "format": 6408,
            "internalFormat": 6408,
            "sampler": "sampler_0",
            "source": "_roofing_slate_dark_cf_img",
            "target": 3553,
            "type": 5121
        },
        "texture__wood_lumber_buttjoined_cf_img": {
            "format": 6408,
            "internalFormat": 6408,
            "sampler": "sampler_0",
            "source": "_wood_lumber_buttjoined_cf_img",
            "target": 3553,
            "type": 5121
        }
    }
}