{
    "accessors": {
        "accessor_26": {
            "bufferView": "bufferView_35",
            "byteOffset": 0,
            "byteStride": 0,
            "componentType": 5123,
            "count": 72,
            "type": "SCALAR"
        },
        "accessor_29": {
            "bufferView": "bufferView_35",
            "byteOffset": 144,
            "byteStride": 0,
            "componentType": 5123,
            "count": 108,
            "type": "SCALAR"
        },
        "accessor_31": {
            "bufferView": "bufferView_36",
            "byteOffset": 0,
            "byteStride": 12,
            "componentType": 5126,
            "count": 121,
            "max": [
                6.88061,
                32.9939,
                3.52032
            ],
            "min": [
                -1.57814,
                -0.0544477,
                0
            ],
            "type": "VEC3"
        },
        "accessor_33": {
            "bufferView": "bufferView_36",
            "byteOffset": 1452,
            "byteStride": 8,
            "componentType": 5126,
            "count": 121,
            "max": [
                9.16665,
                5.58332
            ],
            "min": [
                -9.16665,
                -0.397621
            ],
            "type": "VEC2"
        }
    },
    "animations": {},
    "asset": {
        "generator": "collada2gltf@d78daf1e7950e6c22fe6bec1d07965e8a302e90d",
        "premultipliedAlpha": true,
        "profile": {
            "api": "WebGL",
            "version": "1.0.2"
        },
        "version": 1
    },
    "bufferViews": {
        "bufferView_35": {
            "buffer": "\\Daten\\test\\gltf_10\\Tiles\\0\\0\\13\\GMLID_BUI205585_1385_1373",
            "byteLength": 360,
            "byteOffset": 0,
            "target": 34963
        },
        "bufferView_36": {
            "buffer": "\\Daten\\test\\gltf_10\\Tiles\\0\\0\\13\\GMLID_BUI205585_1385_1373",
            "byteLength": 2420,
            "byteOffset": 360,
            "target": 34962
        }
    },
    "buffers": {
        "\\Daten\\test\\gltf_10\\Tiles\\0\\0\\13\\GMLID_BUI205585_1385_1373": {
            "byteLength": 2780,
            "type": "arraybuffer",
            "uri": "data:application/octet-stream;base64,"
        }
    },
    "images": {
        "_bruecke-beton_img": {
            "name": "_bruecke-beton_img",
            "uri": "_bruecke-beton.jpeg"
        },
        "_bruecke-schotter_img": {
            "name": "_bruecke-schotter_img",
            "uri": "_bruecke-schotter.jpeg"
        }
    },
    "materials": {
        "_bruecke-beton_eff": {
            "name": "_bruecke-beton_mat",
            "technique": "technique0",
            "values": {
                "diffuse": "texture__bruecke-beton_img",
                "emission": [
                    0,
                    0,
                    0,
                    1
                ]
            }
        },
        "_bruecke-schotter_eff": {
            "name": "_bruecke-schotter_mat",
            "technique": "technique0",
            "values": {
                "diffuse": "texture__bruecke-schotter_img",
                "emission": [
                    0,
                    0,
                    0,
                    1
                ]
            }
        }
    },
    "meshes": {
        "geometry0": {
            "name": "geometry0",
            "primitives": [
                {
                    "attributes": {
                        "POSITION": "accessor_31",
                        "TEXCOORD_0": "accessor_33"
                    },
                    "indices": "accessor_26",
                    "material": "_bruecke-schotter_eff",
                    "mode": 4
                },
                {
                    "attributes": {
                        "POSITION": "accessor_31",
                        "TEXCOORD_0": "accessor_33"
                    },
                    "indices": "accessor_29",
                    "material": "_bruecke-beton_eff",
                    "mode": 4
                }
            ]
        }
    },
    "nodes": {
        "node_0": {
            "children": [],
            "matrix": [
                1,
                0,
                0,
                0,
                0,
                1,
                0,
                0,
                0,
                0,
                1,
                0,
                0,
                0,
                0,
                1
            ],
            "meshes": [
                "geometry0"
            ],
            "name": ""
        },
        "node_1": {
            "children": [
                "node_0"
            ],
            "matrix": [
                1,
                0,
                0,
                0,
                0,
                0,
                -1,
                0,
                0,
                1,
                0,
                0,
                0,
                0,
                0,
                1
            ],
            "name": "Y_UP_Transform"
        }
    },
    "programs": {
        "program_0": {
            "attributes": [
                "a_position",
                "a_texcoord0"
            ],
            "fragmentShader": "\\Daten\\test\\gltf_10\\Tiles\\0\\0\\13\\GMLID_BUI205585_1385_13730FS",
            "vertexShader": "\\Daten\\test\\gltf_10\\Tiles\\0\\0\\13\\GMLID_BUI205585_1385_13730VS"
        }
    },
    "samplers": {
        "sampler_0": {
            "magFilter": 9729,
            "minFilter": 9729,
            "wrapS": 10497,
            "wrapT": 10497
        }
    },
    "scene": "defaultScene",
    "scenes": {
        "defaultScene": {
            "nodes": [
                "node_1"
            ]
        }
    },
    "shaders": {
        "\\Daten\\test\\gltf_10\\Tiles\\0\\0\\13\\GMLID_BUI205585_1385_13730FS": {
            "type": 35632,
            "uri": "data:text/plain;base64,"
        },
        "\\Daten\\test\\gltf_10\\Tiles\\0\\0\\13\\GMLID_BUI205585_1385_13730VS": {
            "type": 35633,
            "uri": "data:text/plain;base64,"
        }
    },
    "skins": {},
    "techniques": {
        "technique0": {
            "attributes": {
                "a_position": "position",
                "a_texcoord0": "texcoord0"
            },
            "parameters": {
                "diffuse": {
                    "type": 35678
                },
                "emission": {
                    "type": 35666
                },
                "modelViewMatrix": {
                    "semantic": "MODELVIEW",
                    "type": 35676
                },
                "position": {
                    "semantic": "POSITION",
                    "type": 35665
                },
                "projectionMatrix": {
                    "semantic": "PROJECTION",
                    "type": 35676
                },
                "texcoord0": {
                    "semantic": "TEXCOORD_0",
                    "type": 35664
                }
            },
            "program": "program_0",
            "states": {
                "enable": [
                    2929
                ]
            },
            "uniforms": {
                "u_diffuse": "diffuse",
                "u_emission": "emission",
                "u_modelViewMatrix": "modelViewMatrix",
                "u_projectionMatrix": "projectionMatrix"
            }
        }
    },
    "textures": {
        "texture__bruecke-beton_img": {
            "format": 6408,
            "internalFormat": 6408,
            "sampler": "sampler_0",
            "source": "_bruecke-beton_img",
            "target": 3553,
            "type": 5121
        },
        "texture__bruecke-schotter_img": {
            "format": 6408,
            "internalFormat": 6408,
            "sampler": "sampler_0",
            "source": "_bruecke-schotter_img",
            "target": 3553,
            "type": 5121
        }
    }
}