{
    "accessors": {
        "accessor_37": {
            "bufferView": "bufferView_49",
            "byteOffset": 0,
            "byteStride": 0,
            "componentType": 5123,
            "count": 876,
            "type": "SCALAR"
        },
        "accessor_40": {
            "bufferView": "bufferView_49",
            "byteOffset": 1752,
            "byteStride": 0,
            "componentType": 5123,
            "count": 3636,
            "type": "SCALAR"
        },
        "accessor_43": {
            "bufferView": "bufferView_49",
            "byteOffset": 9024,
            "byteStride": 0,
            "componentType": 5123,
            "count": 36,
            "type": "SCALAR"
        },
        "accessor_45": {
            "bufferView": "bufferView_50",
            "byteOffset": 0,
            "byteStride": 12,
            "componentType": 5126,
            "count": 2930,
            "max": [
                1.22e-005,
                6.89451,
                18.7201
            ],
            "min": [
                -14.8138,
                -7.91933,
                0
            ],
            "type": "VEC3"
        },
        "accessor_47": {
            "bufferView": "bufferView_50",
            "byteOffset": 35160,
            "byteStride": 8,
            "componentType": 5126,
            "count": 2930,
            "max": [
                65.4081,
                17.8307
            ],
            "min": [
                -65.4075,
                -82.2371
            ],
            "type": "VEC2"
        }
    },
    "animations": {},
    "asset": {
        "generator": "collada2gltf@d78daf1e7950e6c22fe6bec1d07965e8a302e90d",
        "premultipliedAlpha": true,
        "profile": {
            "api": "WebGL",
            "version": "1.0.2"
        },
        "version": 1
    },
    "bufferViews": {
        "bufferView_49": {
            "buffer": "\\Daten\\test\\gltf_10\\Tiles\\0\\0\\163\\GMLID_1381455_184173_656",
            "byteLength": 9096,
            "byteOffset": 0,
            "target": 34963
        },
        "bufferView_50": {
            "buffer": "\\Daten\\test\\gltf_10\\Tiles\\0\\0\\163\\GMLID_1381455_184173_656",
            "byteLength": 58600,
            "byteOffset": 9096,
            "target": 34962
        }
    },
    "buffers": {
        "\\Daten\\test\\gltf_10\\Tiles\\0\\0\\163\\GMLID_1381455_184173_656": {
            "byteLength": 67696,
            "type": "arraybuffer",
            "uri": "data:application/octet-stream;base64,"
        }
    },
    "images": {
        "_concrete_form_4x8_cf_img": {
            "name": "_concrete_form_4x8_cf_img",
            "uri": "_concrete_form_4x8_cf.jpeg"
        },
        "_metal_rough_cf_img": {
            "name": "_metal_rough_cf_img",
            "uri": "_metal_rough_cf.jpeg"
        },
        "_metal_rusted_cf_img": {
            "name": "_metal_rusted_cf_img",
            "uri": "_metal_rusted_cf.jpeg"
        }
    },
    "materials": {
        "_concrete_form_4x8_cf_eff": {
            "name": "_concrete_form_4x8_cf_mat",
            "technique": "technique0",
            "values": {
                "diffuse": "texture__concrete_form_4x8_cf_img",
                "emission": [
                    0,
                    0,
                    0,
                    1
                ]
            }
        },
        "_metal_rough_cf_eff": {
            "name": "_metal_rough_cf_mat",
            "technique": "technique0",
            "values": {
                "diffuse": "texture__metal_rough_cf_img",
                "emission": [
                    0,
                    0,
                    0,
                    1
                ]
            }
        },
        "_metal_rusted_cf_eff": {
            "name": "_metal_rusted_cf_mat",
            "technique": "technique0",
            "values": {
                "diffuse": "texture__metal_rusted_cf_img",
                "emission": [
                    0,
                    0,
                    0,
                    1
                ]
            }
        }
    },
    "meshes": {
        "geometry0": {
            "name": "geometry0",
            "primitives": [
                {
                    "attributes": {
                        "POSITION": "accessor_45",
                        "TEXCOORD_0": "accessor_47"
                    },
                    "indices": "accessor_37",
                    "material": "_metal_rough_cf_eff",
                    "mode": 4
                },
                {
                    "attributes": {
                        "POSITION": "accessor_45",
                        "TEXCOORD_0": "accessor_47"
                    },
                    "indices": "accessor_40",
                    "material": "_metal_rusted_cf_eff",
                    "mode": 4
                },
                {
                    "attributes": {
                        "POSITION": "accessor_45",
                        "TEXCOORD_0": "accessor_47"
                    },
                    "indices": "accessor_43",
                    "material": "_concrete_form_4x8_cf_eff",
                    "mode": 4
                }
            ]
        }
    },
    "nodes": {
        "node_0": {
            "children": [],
            "matrix": [
                1,
                0,
                0,
                0,
                0,
                1,
                0,
                0,
                0,
                0,
                1,
                0,
                0,
                0,
                0,
                1
            ],
            "meshes": [
                "geometry0"
            ],
            "name": ""
        },
        "node_1": {
            "children": [
                "node_0"
            ],
            "matrix": [
                1,
                0,
                0,
                0,
                0,
                0,
                -1,
                0,
                0,
                1,
                0,
                0,
                0,
                0,
                0,
                1
            ],
            "name": "Y_UP_Transform"
        }
    },
    "programs": {
        "program_0": {
            "attributes": [
                "a_position",
                "a_texcoord0"
            ],
            "fragmentShader": "\\Daten\\test\\gltf_10\\Tiles\\0\\0\\163\\GMLID_1381455_184173_6560FS",
            "vertexShader": "\\Daten\\test\\gltf_10\\Tiles\\0\\0\\163\\GMLID_1381455_184173_6560VS"
        }
    },
    "samplers": {
        "sampler_0": {
            "magFilter": 9729,
            "minFilter": 9729,
            "wrapS": 10497,
            "wrapT": 10497
        }
    },
    "scene": "defaultScene",
    "scenes": {
        "defaultScene": {
            "nodes": [
                "node_1"
            ]
        }
    },
    "shaders": {
        "\\Daten\\test\\gltf_10\\Tiles\\0\\0\\163\\GMLID_1381455_184173_6560FS": {
            "type": 35632,
            "uri": "data:text/plain;base64,"
        },
        "\\Daten\\test\\gltf_10\\Tiles\\0\\0\\163\\GMLID_1381455_184173_6560VS": {
            "type": 35633,
            "uri": "data:text/plain;base64,"
        }
    },
    "skins": {},
    "techniques": {
        "technique0": {
            "attributes": {
                "a_position": "position",
                "a_texcoord0": "texcoord0"
            },
            "parameters": {
                "diffuse": {
                    "type": 35678
                },
                "emission": {
                    "type": 35666
                },
                "modelViewMatrix": {
                    "semantic": "MODELVIEW",
                    "type": 35676
                },
                "position": {
                    "semantic": "POSITION",
                    "type": 35665
                },
                "projectionMatrix": {
                    "semantic": "PROJECTION",
                    "type": 35676
                },
                "texcoord0": {
                    "semantic": "TEXCOORD_0",
                    "type": 35664
                }
            },
            "program": "program_0",
            "states": {
                "enable": [
                    2929
                ]
            },
            "uniforms": {
                "u_diffuse": "diffuse",
                "u_emission": "emission",
                "u_modelViewMatrix": "modelViewMatrix",
                "u_projectionMatrix": "projectionMatrix"
            }
        }
    },
    "textures": {
        "texture__concrete_form_4x8_cf_img": {
            "format": 6408,
            "internalFormat": 6408,
            "sampler": "sampler_0",
            "source": "_concrete_form_4x8_cf_img",
            "target": 3553,
            "type": 5121
        },
        "texture__metal_rough_cf_img": {
            "format": 6408,
            "internalFormat": 6408,
            "sampler": "sampler_0",
            "source": "_metal_rough_cf_img",
            "target": 3553,
            "type": 5121
        },
        "texture__metal_rusted_cf_img": {
            "format": 6408,
            "internalFormat": 6408,
            "sampler": "sampler_0",
            "source": "_metal_rusted_cf_img",
            "target": 3553,
            "type": 5121
        }
    }
}