{
    "accessors": {
        "accessor_60": {
            "bufferView": "bufferView_80",
            "byteOffset": 0,
            "byteStride": 0,
            "componentType": 5123,
            "count": 18,
            "type": "SCALAR"
        },
        "accessor_63": {
            "bufferView": "bufferView_80",
            "byteOffset": 36,
            "byteStride": 0,
            "componentType": 5123,
            "count": 18,
            "type": "SCALAR"
        },
        "accessor_66": {
            "bufferView": "bufferView_80",
            "byteOffset": 72,
            "byteStride": 0,
            "componentType": 5123,
            "count": 180,
            "type": "SCALAR"
        },
        "accessor_69": {
            "bufferView": "bufferView_80",
            "byteOffset": 432,
            "byteStride": 0,
            "componentType": 5123,
            "count": 66,
            "type": "SCALAR"
        },
        "accessor_72": {
            "bufferView": "bufferView_80",
            "byteOffset": 564,
            "byteStride": 0,
            "componentType": 5123,
            "count": 2994,
            "type": "SCALAR"
        },
        "accessor_74": {
            "bufferView": "bufferView_81",
            "byteOffset": 0,
            "byteStride": 12,
            "componentType": 5126,
            "count": 2368,
            "max": [
                1.85615,
                5.76542,
                8.25001
            ],
            "min": [
                -13.2961,
                -9.38683,
                0
            ],
            "type": "VEC3"
        },
        "accessor_76": {
            "bufferView": "bufferView_81",
            "byteOffset": 28416,
            "byteStride": 12,
            "componentType": 5126,
            "count": 2368,
            "max": [
                0.441725,
                0.441725,
                6.33678e-039
            ],
            "min": [
                -0.640595,
                -0.640595,
                -1
            ],
            "type": "VEC3"
        },
        "accessor_78": {
            "bufferView": "bufferView_81",
            "byteOffset": 56832,
            "byteStride": 8,
            "componentType": 5126,
            "count": 2368,
            "max": [
                222.208,
                1.17498
            ],
            "min": [
                -222.208,
                -161
            ],
            "type": "VEC2"
        }
    },
    "animations": {},
    "asset": {
        "generator": "collada2gltf@d78daf1e7950e6c22fe6bec1d07965e8a302e90d",
        "premultipliedAlpha": true,
        "profile": {
            "api": "WebGL",
            "version": "1.0.2"
        },
        "version": 1
    },
    "bufferViews": {
        "bufferView_80": {
            "buffer": "\\Daten\\test\\gltf_10\\Tiles\\0\\0\\143\\GMLID_BUI130363_1235_6047",
            "byteLength": 6552,
            "byteOffset": 0,
            "target": 34963
        },
        "bufferView_81": {
            "buffer": "\\Daten\\test\\gltf_10\\Tiles\\0\\0\\143\\GMLID_BUI130363_1235_6047",
            "byteLength": 75776,
            "byteOffset": 6552,
            "target": 34962
        }
    },
    "buffers": {
        "\\Daten\\test\\gltf_10\\Tiles\\0\\0\\143\\GMLID_BUI130363_1235_6047": {
            "byteLength": 82328,
            "type": "arraybuffer",
            "uri": "data:application/octet-stream;base64,"
        }
    },
    "images": {
        "_bootshaus-fenster_img": {
            "name": "_bootshaus-fenster_img",
            "uri": "_bootshaus-fenster.jpeg"
        },
        "_meran_03rh_10_img": {
            "name": "_meran_03rh_10_img",
            "uri": "_meran_03rh_10.jpeg"
        },
        "_roofing_shingles_variable_img": {
            "name": "_roofing_shingles_variable_img",
            "uri": "_roofing_shingles_variable.jpeg"
        },
        "_wood_cherry_original_img": {
            "name": "_wood_cherry_original_img",
            "uri": "_wood_cherry_original.jpeg"
        }
    },
    "materials": {
        "_bootshaus-fenster_eff": {
            "name": "_bootshaus-fenster_mat",
            "technique": "technique0",
            "values": {
                "diffuse": "texture__bootshaus-fenster_img",
                "emission": [
                    0,
                    0,
                    0,
                    1
                ]
            }
        },
        "_meran_03rh_10_eff": {
            "name": "_meran_03rh_10_mat",
            "technique": "technique0",
            "values": {
                "diffuse": "texture__meran_03rh_10_img",
                "emission": [
                    0,
                    0,
                    0,
                    1
                ]
            }
        },
        "_roofing_shingles_variable_eff": {
            "name": "_roofing_shingles_variable_mat",
            "technique": "technique0",
            "values": {
                "diffuse": "texture__roofing_shingles_variable_img",
                "emission": [
                    0,
                    0,
                    0,
                    1
                ]
            }
        },
        "_wood_cherry_original_eff": {
            "name": "_wood_cherry_original_mat",
            "technique": "technique0",
            "values": {
                "diffuse": "texture__wood_cherry_original_img",
                "emission": [
                    0,
                    0,
                    0,
                    1
                ]
            }
        },
        "default_ai_0.2_sh_0.2_tr_0.21568627450980393_dc_r_0.8_g_0.8_b_0.8_sc_r_1.0_g_1.0_b_1.0_ec_r_0.0_g_0.0_b_0_eff": {
            "name": "default_ai_0.2_sh_0.2_tr_0.21568627450980393_dc_r_0.8_g_0.8_b_0.8_sc_r_1.0_g_1.0_b_1.0_ec_r_0.0_g_0.0_b_0_mat",
            "technique": "technique1",
            "values": {
                "diffuse": [
                    0.8,
                    0.8,
                    0.8,
                    1
                ],
                "emission": [
                    0,
                    0,
                    0,
                    1
                ],
                "transparency": 0.784314
            }
        }
    },
    "meshes": {
        "geometry0": {
            "name": "geometry0",
            "primitives": [
                {
                    "attributes": {
                        "NORMAL": "accessor_76",
                        "POSITION": "accessor_74"
                    },
                    "indices": "accessor_60",
                    "material": "default_ai_0.2_sh_0.2_tr_0.21568627450980393_dc_r_0.8_g_0.8_b_0.8_sc_r_1.0_g_1.0_b_1.0_ec_r_0.0_g_0.0_b_0_eff",
                    "mode": 4
                },
                {
                    "attributes": {
                        "POSITION": "accessor_74",
                        "TEXCOORD_0": "accessor_78"
                    },
                    "indices": "accessor_63",
                    "material": "_bootshaus-fenster_eff",
                    "mode": 4
                },
                {
                    "attributes": {
                        "POSITION": "accessor_74",
                        "TEXCOORD_0": "accessor_78"
                    },
                    "indices": "accessor_66",
                    "material": "_meran_03rh_10_eff",
                    "mode": 4
                },
                {
                    "attributes": {
                        "POSITION": "accessor_74",
                        "TEXCOORD_0": "accessor_78"
                    },
                    "indices": "accessor_69",
                    "material": "_roofing_shingles_variable_eff",
                    "mode": 4
                },
                {
                    "attributes": {
                        "POSITION": "accessor_74",
                        "TEXCOORD_0": "accessor_78"
                    },
                    "indices": "accessor_72",
                    "material": "_wood_cherry_original_eff",
                    "mode": 4
                }
            ]
        }
    },
    "nodes": {
        "node_0": {
            "children": [],
            "matrix": [
                1,
                0,
                0,
                0,
                0,
                1,
                0,
                0,
                0,
                0,
                1,
                0,
                0,
                0,
                0,
                1
            ],
            "meshes": [
                "geometry0"
            ],
            "name": ""
        },
        "node_1": {
            "children": [
                "node_0"
            ],
            "matrix": [
                1,
                0,
                0,
                0,
                0,
                0,
                -1,
                0,
                0,
                1,
                0,
                0,
                0,
                0,
                0,
                1
            ],
            "name": "Y_UP_Transform"
        }
    },
    "programs": {
        "program_0": {
            "attributes": [
                "a_position",
                "a_texcoord0"
            ],
            "fragmentShader": "\\Daten\\test\\gltf_10\\Tiles\\0\\0\\143\\GMLID_BUI130363_1235_60470FS",
            "vertexShader": "\\Daten\\test\\gltf_10\\Tiles\\0\\0\\143\\GMLID_BUI130363_1235_60470VS"
        },
        "program_1": {
            "attributes": [
                "a_normal",
                "a_position"
            ],
            "fragmentShader": "\\Daten\\test\\gltf_10\\Tiles\\0\\0\\143\\GMLID_BUI130363_1235_60471FS",
            "vertexShader": "\\Daten\\test\\gltf_10\\Tiles\\0\\0\\143\\GMLID_BUI130363_1235_60471VS"
        }
    },
    "samplers": {
        "sampler_0": {
            "magFilter": 9729,
            "minFilter": 9729,
            "wrapS": 10497,
            "wrapT": 10497
        }
    },
    "scene": "defaultScene",
    "scenes": {
        "defaultScene": {
            "nodes": [
                "node_1"
            ]
        }
    },
    "shaders": {
        "\\Daten\\test\\gltf_10\\Tiles\\0\\0\\143\\GMLID_BUI130363_1235_60470FS": {
            "type": 35632,
            "uri": "data:text/plain;base64,"
        },
        "\\Daten\\test\\gltf_10\\Tiles\\0\\0\\143\\GMLID_BUI130363_1235_60470VS": {
            "type": 35633,
            "uri": "data:text/plain;base64,"
        },
        "\\Daten\\test\\gltf_10\\Tiles\\0\\0\\143\\GMLID_BUI130363_1235_60471FS": {
            "type": 35632,
            "uri": "data:text/plain;base64,"
        },
        "\\Daten\\test\\gltf_10\\Tiles\\0\\0\\143\\GMLID_BUI130363_1235_60471VS": {
            "type": 35633,
            "uri": "data:text/plain;base64,"
        }
    },
    "skins": {},
    "techniques": {
        "technique0": {
            "attributes": {
                "a_position": "position",
                "a_texcoord0": "texcoord0"
            },
            "parameters": {
                "diffuse": {
                    "type": 35678
                },
                "emission": {
                    "type": 35666
                },
                "modelViewMatrix": {
                    "semantic": "MODELVIEW",
                    "type": 35676
                },
                "position": {
                    "semantic": "POSITION",
                    "type": 35665
                },
                "projectionMatrix": {
                    "semantic": "PROJECTION",
                    "type": 35676
                },
                "texcoord0": {
                    "semantic": "TEXCOORD_0",
                    "type": 35664
                }
            },
            "program": "program_0",
            "states": {
                "enable": [
                    2929
                ]
            },
            "uniforms": {
                "u_diffuse": "diffuse",
                "u_emission": "emission",
                "u_modelViewMatrix": "modelViewMatrix",
                "u_projectionMatrix": "projectionMatrix"
            }
        },
        "technique1": {
            "attributes": {
                "a_normal": "normal",
                "a_position": "position"
            },
            "parameters": {
                "diffuse": {
                    "type": 35666
                },
                "emission": {
                    "type": 35666
                },
                "modelViewMatrix": {
                    "semantic": "MODELVIEW",
                    "type": 35676
                },
                "normal": {
                    "semantic": "NORMAL",
                    "type": 35665
                },
                "normalMatrix": {
                    "semantic": "MODELVIEWINVERSETRANSPOSE",
                    "type": 35675
                },
                "position": {
                    "semantic": "POSITION",
                    "type": 35665
                },
                "projectionMatrix": {
                    "semantic": "PROJECTION",
                    "type": 35676
                },
                "transparency": {
                    "type": 5126
                }
            },
            "program": "program_1",
            "states": {
                "enable": [
                    2929,
                    3042
                ],
                "functions": {
                    "blendEquationSeparate": [
                        32774,
                        32774
                    ],
                    "blendFuncSeparate": [
                        1,
                        771,
                        1,
                        771
                    ],
                    "depthMask": false
                }
            },
            "uniforms": {
                "u_diffuse": "diffuse",
                "u_emission": "emission",
                "u_modelViewMatrix": "modelViewMatrix",
                "u_normalMatrix": "normalMatrix",
                "u_projectionMatrix": "projectionMatrix",
                "u_transparency": "transparency"
            }
        }
    },
    "textures": {
        "texture__bootshaus-fenster_img": {
            "format": 6408,
            "internalFormat": 6408,
            "sampler": "sampler_0",
            "source": "_bootshaus-fenster_img",
            "target": 3553,
            "type": 5121
        },
        "texture__meran_03rh_10_img": {
            "format": 6408,
            "internalFormat": 6408,
            "sampler": "sampler_0",
            "source": "_meran_03rh_10_img",
            "target": 3553,
            "type": 5121
        },
        "texture__roofing_shingles_variable_img": {
            "format": 6408,
            "internalFormat": 6408,
            "sampler": "sampler_0",
            "source": "_roofing_shingles_variable_img",
            "target": 3553,
            "type": 5121
        },
        "texture__wood_cherry_original_img": {
            "format": 6408,
            "internalFormat": 6408,
            "sampler": "sampler_0",
            "source": "_wood_cherry_original_img",
            "target": 3553,
            "type": 5121
        }
    }
}