{
    "accessors": {
        "accessor_27": {
            "bufferView": "bufferView_38",
            "byteOffset": 0,
            "byteStride": 0,
            "componentType": 5123,
            "count": 180,
            "type": "SCALAR"
        },
        "accessor_30": {
            "bufferView": "bufferView_38",
            "byteOffset": 360,
            "byteStride": 0,
            "componentType": 5123,
            "count": 1440,
            "type": "SCALAR"
        },
        "accessor_32": {
            "bufferView": "bufferView_39",
            "byteOffset": 0,
            "byteStride": 12,
            "componentType": 5126,
            "count": 1088,
            "max": [
                3.497,
                4.03978,
                13.429
            ],
            "min": [
                -3.25097,
                -2.70819,
                0
            ],
            "type": "VEC3"
        },
        "accessor_34": {
            "bufferView": "bufferView_39",
            "byteOffset": 13056,
            "byteStride": 12,
            "componentType": 5126,
            "count": 1088,
            "max": [
                0.999138,
                0.999138,
                1
            ],
            "min": [
                -0.999138,
                -0.999139,
                -1
            ],
            "type": "VEC3"
        },
        "accessor_36": {
            "bufferView": "bufferView_39",
            "byteOffset": 26112,
            "byteStride": 8,
            "componentType": 5126,
            "count": 1088,
            "max": [
                1.00001,
                1.00002
            ],
            "min": [
                -1.02593e-005,
                -1.34706e-005
            ],
            "type": "VEC2"
        }
    },
    "animations": {},
    "asset": {
        "generator": "collada2gltf@d78daf1e7950e6c22fe6bec1d07965e8a302e90d",
        "premultipliedAlpha": true,
        "profile": {
            "api": "WebGL",
            "version": "1.0.2"
        },
        "version": 1
    },
    "bufferViews": {
        "bufferView_38": {
            "buffer": "\\Daten\\test\\gltf_10\\Tiles\\0\\0\\72\\GMLID_SO0158953_776_12462",
            "byteLength": 3240,
            "byteOffset": 0,
            "target": 34963
        },
        "bufferView_39": {
            "buffer": "\\Daten\\test\\gltf_10\\Tiles\\0\\0\\72\\GMLID_SO0158953_776_12462",
            "byteLength": 34816,
            "byteOffset": 3240,
            "target": 34962
        }
    },
    "buffers": {
        "\\Daten\\test\\gltf_10\\Tiles\\0\\0\\72\\GMLID_SO0158953_776_12462": {
            "byteLength": 38056,
            "type": "arraybuffer",
            "uri": "data:application/octet-stream;base64,"
        }
    },
    "images": {
        "_MaerZ-0_img": {
            "name": "_MaerZ-0_img",
            "uri": "_MaerZ-0.png"
        }
    },
    "materials": {
        "_MaerZ-0_eff": {
            "name": "_MaerZ-0_mat",
            "technique": "technique0",
            "values": {
                "diffuse": "texture__MaerZ-0_img",
                "emission": [
                    0,
                    0,
                    0,
                    1
                ]
            }
        },
        "default_tr_0.0_dc_r_0.49609375_g_0.4296875_b_0.296875_sc_r_1.0_g_1.0_b_1.0_ec_r_0.0_g_0.0_b_0_eff": {
            "name": "default_tr_0.0_dc_r_0.49609375_g_0.4296875_b_0.296875_sc_r_1.0_g_1.0_b_1.0_ec_r_0.0_g_0.0_b_0_mat",
            "technique": "technique1",
            "values": {
                "diffuse": [
                    0.496094,
                    0.429688,
                    0.296875,
                    1
                ],
                "emission": [
                    0,
                    0,
                    0,
                    1
                ]
            }
        }
    },
    "meshes": {
        "geometry0": {
            "name": "geometry0",
            "primitives": [
                {
                    "attributes": {
                        "NORMAL": "accessor_34",
                        "POSITION": "accessor_32"
                    },
                    "indices": "accessor_27",
                    "material": "default_tr_0.0_dc_r_0.49609375_g_0.4296875_b_0.296875_sc_r_1.0_g_1.0_b_1.0_ec_r_0.0_g_0.0_b_0_eff",
                    "mode": 4
                },
                {
                    "attributes": {
                        "POSITION": "accessor_32",
                        "TEXCOORD_0": "accessor_36"
                    },
                    "indices": "accessor_30",
                    "material": "_MaerZ-0_eff",
                    "mode": 4
                }
            ]
        }
    },
    "nodes": {
        "node_0": {
            "children": [],
            "matrix": [
                1,
                0,
                0,
                0,
                0,
                1,
                0,
                0,
                0,
                0,
                1,
                0,
                0,
                0,
                0,
                1
            ],
            "meshes": [
                "geometry0"
            ],
            "name": ""
        },
        "node_1": {
            "children": [
                "node_0"
            ],
            "matrix": [
                1,
                0,
                0,
                0,
                0,
                0,
                -1,
                0,
                0,
                1,
                0,
                0,
                0,
                0,
                0,
                1
            ],
            "name": "Y_UP_Transform"
        }
    },
    "programs": {
        "program_0": {
            "attributes": [
                "a_position",
                "a_texcoord0"
            ],
            "fragmentShader": "\\Daten\\test\\gltf_10\\Tiles\\0\\0\\72\\GMLID_SO0158953_776_124620FS",
            "vertexShader": "\\Daten\\test\\gltf_10\\Tiles\\0\\0\\72\\GMLID_SO0158953_776_124620VS"
        },
        "program_1": {
            "attributes": [
                "a_normal",
                "a_position"
            ],
            "fragmentShader": "\\Daten\\test\\gltf_10\\Tiles\\0\\0\\72\\GMLID_SO0158953_776_124621FS",
            "vertexShader": "\\Daten\\test\\gltf_10\\Tiles\\0\\0\\72\\GMLID_SO0158953_776_124621VS"
        }
    },
    "samplers": {
        "sampler_0": {
            "magFilter": 9729,
            "minFilter": 9729,
            "wrapS": 10497,
            "wrapT": 10497
        }
    },
    "scene": "defaultScene",
    "scenes": {
        "defaultScene": {
            "nodes": [
                "node_1"
            ]
        }
    },
    "shaders": {
        "\\Daten\\test\\gltf_10\\Tiles\\0\\0\\72\\GMLID_SO0158953_776_124620FS": {
            "type": 35632,
            "uri": "data:text/plain;base64,"
        },
        "\\Daten\\test\\gltf_10\\Tiles\\0\\0\\72\\GMLID_SO0158953_776_124620VS": {
            "type": 35633,
            "uri": "data:text/plain;base64,"
        },
        "\\Daten\\test\\gltf_10\\Tiles\\0\\0\\72\\GMLID_SO0158953_776_124621FS": {
            "type": 35632,
            "uri": "data:text/plain;base64,"
        },
        "\\Daten\\test\\gltf_10\\Tiles\\0\\0\\72\\GMLID_SO0158953_776_124621VS": {
            "type": 35633,
            "uri": "data:text/plain;base64,"
        }
    },
    "skins": {},
    "techniques": {
        "technique0": {
            "attributes": {
                "a_position": "position",
                "a_texcoord0": "texcoord0"
            },
            "parameters": {
                "diffuse": {
                    "type": 35678
                },
                "emission": {
                    "type": 35666
                },
                "modelViewMatrix": {
                    "semantic": "MODELVIEW",
                    "type": 35676
                },
                "position": {
                    "semantic": "POSITION",
                    "type": 35665
                },
                "projectionMatrix": {
                    "semantic": "PROJECTION",
                    "type": 35676
                },
                "texcoord0": {
                    "semantic": "TEXCOORD_0",
                    "type": 35664
                }
            },
            "program": "program_0",
            "states": {
                "enable": [
                    2929
                ]
            },
            "uniforms": {
                "u_diffuse": "diffuse",
                "u_emission": "emission",
                "u_modelViewMatrix": "modelViewMatrix",
                "u_projectionMatrix": "projectionMatrix"
            }
        },
        "technique1": {
            "attributes": {
                "a_normal": "normal",
                "a_position": "position"
            },
            "parameters": {
                "diffuse": {
                    "type": 35666
                },
                "emission": {
                    "type": 35666
                },
                "modelViewMatrix": {
                    "semantic": "MODELVIEW",
                    "type": 35676
                },
                "normal": {
                    "semantic": "NORMAL",
                    "type": 35665
                },
                "normalMatrix": {
                    "semantic": "MODELVIEWINVERSETRANSPOSE",
                    "type": 35675
                },
                "position": {
                    "semantic": "POSITION",
                    "type": 35665
                },
                "projectionMatrix": {
                    "semantic": "PROJECTION",
                    "type": 35676
                }
            },
            "program": "program_1",
            "states": {
                "enable": [
                    2929
                ]
            },
            "uniforms": {
                "u_diffuse": "diffuse",
                "u_emission": "emission",
                "u_modelViewMatrix": "modelViewMatrix",
                "u_normalMatrix": "normalMatrix",
                "u_projectionMatrix": "projectionMatrix"
            }
        }
    },
    "textures": {
        "texture__MaerZ-0_img": {
            "format": 6408,
            "internalFormat": 6408,
            "sampler": "sampler_0",
            "source": "_MaerZ-0_img",
            "target": 3553,
            "type": 5121
        }
    }
}