{
    "accessors": {
        "accessor_63": {
            "bufferView": "bufferView_83",
            "byteOffset": 0,
            "byteStride": 0,
            "componentType": 5123,
            "count": 5670,
            "type": "SCALAR"
        },
        "accessor_66": {
            "bufferView": "bufferView_83",
            "byteOffset": 11340,
            "byteStride": 0,
            "componentType": 5123,
            "count": 1140,
            "type": "SCALAR"
        },
        "accessor_69": {
            "bufferView": "bufferView_83",
            "byteOffset": 13620,
            "byteStride": 0,
            "componentType": 5123,
            "count": 24,
            "type": "SCALAR"
        },
        "accessor_72": {
            "bufferView": "bufferView_83",
            "byteOffset": 13668,
            "byteStride": 0,
            "componentType": 5123,
            "count": 570,
            "type": "SCALAR"
        },
        "accessor_75": {
            "bufferView": "bufferView_83",
            "byteOffset": 14808,
            "byteStride": 0,
            "componentType": 5123,
            "count": 888,
            "type": "SCALAR"
        },
        "accessor_77": {
            "bufferView": "bufferView_84",
            "byteOffset": 0,
            "byteStride": 12,
            "componentType": 5126,
            "count": 5536,
            "max": [
                0.32344,
                5.27999,
                3.62102
            ],
            "min": [
                -110.759,
                -56.1789,
                0
            ],
            "type": "VEC3"
        },
        "accessor_79": {
            "bufferView": "bufferView_84",
            "byteOffset": 66432,
            "byteStride": 12,
            "componentType": 5126,
            "count": 5536,
            "max": [
                0.999848,
                1,
                1
            ],
            "min": [
                -0.999848,
                -1,
                -0.999808
            ],
            "type": "VEC3"
        },
        "accessor_81": {
            "bufferView": "bufferView_84",
            "byteOffset": 132864,
            "byteStride": 8,
            "componentType": 5126,
            "count": 5536,
            "max": [
                145.16,
                267.717
            ],
            "min": [
                -348.06,
                -58.6396
            ],
            "type": "VEC2"
        }
    },
    "animations": {},
    "asset": {
        "generator": "collada2gltf@d78daf1e7950e6c22fe6bec1d07965e8a302e90d",
        "premultipliedAlpha": true,
        "profile": {
            "api": "WebGL",
            "version": "1.0.2"
        },
        "version": 1
    },
    "bufferViews": {
        "bufferView_83": {
            "buffer": "\\Daten\\test\\gltf_10\\Tiles\\0\\0\\172\\GMLID_48290571_3377_526",
            "byteLength": 16584,
            "byteOffset": 0,
            "target": 34963
        },
        "bufferView_84": {
            "buffer": "\\Daten\\test\\gltf_10\\Tiles\\0\\0\\172\\GMLID_48290571_3377_526",
            "byteLength": 177152,
            "byteOffset": 16584,
            "target": 34962
        }
    },
    "buffers": {
        "\\Daten\\test\\gltf_10\\Tiles\\0\\0\\172\\GMLID_48290571_3377_526": {
            "byteLength": 193736,
            "type": "arraybuffer",
            "uri": "data:application/octet-stream;base64,"
        }
    },
    "images": {
        "_maerz-0_img": {
            "name": "_maerz-0_img",
            "uri": "_maerz-0.png"
        }
    },
    "materials": {
        "_maerz-0_eff": {
            "name": "_maerz-0_mat",
            "technique": "technique0",
            "values": {
                "diffuse": "texture__maerz-0_img",
                "emission": [
                    0,
                    0,
                    0,
                    1
                ]
            }
        },
        "default_ai_0.2_sh_0.2_tr_0.0_dc_r_0.8_g_0.8_b_0.8_sc_r_1.0_g_1.0_b_1.0_ec_r_0.0_g_0.0_b_0_eff": {
            "name": "default_ai_0.2_sh_0.2_tr_0.0_dc_r_0.8_g_0.8_b_0.8_sc_r_1.0_g_1.0_b_1.0_ec_r_0.0_g_0.0_b_0_mat",
            "technique": "technique1",
            "values": {
                "diffuse": [
                    0.8,
                    0.8,
                    0.8,
                    1
                ],
                "emission": [
                    0,
                    0,
                    0,
                    1
                ]
            }
        },
        "default_tr_0.0_dc_r_0.3984375_g_0.24609375_b_0.09765625_sc_r_1.0_g_1.0_b_1.0_ec_r_0.0_g_0.0_b_0_eff": {
            "name": "default_tr_0.0_dc_r_0.3984375_g_0.24609375_b_0.09765625_sc_r_1.0_g_1.0_b_1.0_ec_r_0.0_g_0.0_b_0_mat",
            "technique": "technique1",
            "values": {
                "diffuse": [
                    0.398438,
                    0.246094,
                    0.0976563,
                    1
                ],
                "emission": [
                    0,
                    0,
                    0,
                    1
                ]
            }
        },
        "default_tr_0.0_dc_r_0.49609375_g_0.34765625_b_0.1484375_sc_r_1.0_g_1.0_b_1.0_ec_r_0.0_g_0.0_b_0_eff": {
            "name": "default_tr_0.0_dc_r_0.49609375_g_0.34765625_b_0.1484375_sc_r_1.0_g_1.0_b_1.0_ec_r_0.0_g_0.0_b_0_mat",
            "technique": "technique1",
            "values": {
                "diffuse": [
                    0.496094,
                    0.347656,
                    0.148438,
                    1
                ],
                "emission": [
                    0,
                    0,
                    0,
                    1
                ]
            }
        },
        "default_tr_0.0_dc_r_0.99609375_g_0.99609375_b_0.99609375_sc_r_1.0_g_1.0_b_1.0_ec_r_0.0_g_0.0_b_0_eff": {
            "name": "default_tr_0.0_dc_r_0.99609375_g_0.99609375_b_0.99609375_sc_r_1.0_g_1.0_b_1.0_ec_r_0.0_g_0.0_b_0_mat",
            "technique": "technique1",
            "values": {
                "diffuse": [
                    0.996094,
                    0.996094,
                    0.996094,
                    1
                ],
                "emission": [
                    0,
                    0,
                    0,
                    1
                ]
            }
        }
    },
    "meshes": {
        "geometry0": {
            "name": "geometry0",
            "primitives": [
                {
                    "attributes": {
                        "NORMAL": "accessor_79",
                        "POSITION": "accessor_77"
                    },
                    "indices": "accessor_63",
                    "material": "default_tr_0.0_dc_r_0.3984375_g_0.24609375_b_0.09765625_sc_r_1.0_g_1.0_b_1.0_ec_r_0.0_g_0.0_b_0_eff",
                    "mode": 4
                },
                {
                    "attributes": {
                        "NORMAL": "accessor_79",
                        "POSITION": "accessor_77"
                    },
                    "indices": "accessor_66",
                    "material": "default_tr_0.0_dc_r_0.49609375_g_0.34765625_b_0.1484375_sc_r_1.0_g_1.0_b_1.0_ec_r_0.0_g_0.0_b_0_eff",
                    "mode": 4
                },
                {
                    "attributes": {
                        "NORMAL": "accessor_79",
                        "POSITION": "accessor_77"
                    },
                    "indices": "accessor_69",
                    "material": "default_ai_0.2_sh_0.2_tr_0.0_dc_r_0.8_g_0.8_b_0.8_sc_r_1.0_g_1.0_b_1.0_ec_r_0.0_g_0.0_b_0_eff",
                    "mode": 4
                },
                {
                    "attributes": {
                        "NORMAL": "accessor_79",
                        "POSITION": "accessor_77"
                    },
                    "indices": "accessor_72",
                    "material": "default_tr_0.0_dc_r_0.99609375_g_0.99609375_b_0.99609375_sc_r_1.0_g_1.0_b_1.0_ec_r_0.0_g_0.0_b_0_eff",
                    "mode": 4
                },
                {
                    "attributes": {
                        "POSITION": "accessor_77",
                        "TEXCOORD_0": "accessor_81"
                    },
                    "indices": "accessor_75",
                    "material": "_maerz-0_eff",
                    "mode": 4
                }
            ]
        }
    },
    "nodes": {
        "node_0": {
            "children": [],
            "matrix": [
                1,
                0,
                0,
                0,
                0,
                1,
                0,
                0,
                0,
                0,
                1,
                0,
                0,
                0,
                0,
                1
            ],
            "meshes": [
                "geometry0"
            ],
            "name": ""
        },
        "node_1": {
            "children": [
                "node_0"
            ],
            "matrix": [
                1,
                0,
                0,
                0,
                0,
                0,
                -1,
                0,
                0,
                1,
                0,
                0,
                0,
                0,
                0,
                1
            ],
            "name": "Y_UP_Transform"
        }
    },
    "programs": {
        "program_0": {
            "attributes": [
                "a_position",
                "a_texcoord0"
            ],
            "fragmentShader": "\\Daten\\test\\gltf_10\\Tiles\\0\\0\\172\\GMLID_48290571_3377_5260FS",
            "vertexShader": "\\Daten\\test\\gltf_10\\Tiles\\0\\0\\172\\GMLID_48290571_3377_5260VS"
        },
        "program_1": {
            "attributes": [
                "a_normal",
                "a_position"
            ],
            "fragmentShader": "\\Daten\\test\\gltf_10\\Tiles\\0\\0\\172\\GMLID_48290571_3377_5261FS",
            "vertexShader": "\\Daten\\test\\gltf_10\\Tiles\\0\\0\\172\\GMLID_48290571_3377_5261VS"
        }
    },
    "samplers": {
        "sampler_0": {
            "magFilter": 9729,
            "minFilter": 9729,
            "wrapS": 10497,
            "wrapT": 10497
        }
    },
    "scene": "defaultScene",
    "scenes": {
        "defaultScene": {
            "nodes": [
                "node_1"
            ]
        }
    },
    "shaders": {
        "\\Daten\\test\\gltf_10\\Tiles\\0\\0\\172\\GMLID_48290571_3377_5260FS": {
            "type": 35632,
            "uri": "data:text/plain;base64,"
        },
        "\\Daten\\test\\gltf_10\\Tiles\\0\\0\\172\\GMLID_48290571_3377_5260VS": {
            "type": 35633,
            "uri": "data:text/plain;base64,"
        },
        "\\Daten\\test\\gltf_10\\Tiles\\0\\0\\172\\GMLID_48290571_3377_5261FS": {
            "type": 35632,
            "uri": "data:text/plain;base64,"
        },
        "\\Daten\\test\\gltf_10\\Tiles\\0\\0\\172\\GMLID_48290571_3377_5261VS": {
            "type": 35633,
            "uri": "data:text/plain;base64,"
        }
    },
    "skins": {},
    "techniques": {
        "technique0": {
            "attributes": {
                "a_position": "position",
                "a_texcoord0": "texcoord0"
            },
            "parameters": {
                "diffuse": {
                    "type": 35678
                },
                "emission": {
                    "type": 35666
                },
                "modelViewMatrix": {
                    "semantic": "MODELVIEW",
                    "type": 35676
                },
                "position": {
                    "semantic": "POSITION",
                    "type": 35665
                },
                "projectionMatrix": {
                    "semantic": "PROJECTION",
                    "type": 35676
                },
                "texcoord0": {
                    "semantic": "TEXCOORD_0",
                    "type": 35664
                }
            },
            "program": "program_0",
            "states": {
                "enable": [
                    2929
                ]
            },
            "uniforms": {
                "u_diffuse": "diffuse",
                "u_emission": "emission",
                "u_modelViewMatrix": "modelViewMatrix",
                "u_projectionMatrix": "projectionMatrix"
            }
        },
        "technique1": {
            "attributes": {
                "a_normal": "normal",
                "a_position": "position"
            },
            "parameters": {
                "diffuse": {
                    "type": 35666
                },
                "emission": {
                    "type": 35666
                },
                "modelViewMatrix": {
                    "semantic": "MODELVIEW",
                    "type": 35676
                },
                "normal": {
                    "semantic": "NORMAL",
                    "type": 35665
                },
                "normalMatrix": {
                    "semantic": "MODELVIEWINVERSETRANSPOSE",
                    "type": 35675
                },
                "position": {
                    "semantic": "POSITION",
                    "type": 35665
                },
                "projectionMatrix": {
                    "semantic": "PROJECTION",
                    "type": 35676
                }
            },
            "program": "program_1",
            "states": {
                "enable": [
                    2929
                ]
            },
            "uniforms": {
                "u_diffuse": "diffuse",
                "u_emission": "emission",
                "u_modelViewMatrix": "modelViewMatrix",
                "u_normalMatrix": "normalMatrix",
                "u_projectionMatrix": "projectionMatrix"
            }
        }
    },
    "textures": {
        "texture__maerz-0_img": {
            "format": 6408,
            "internalFormat": 6408,
            "sampler": "sampler_0",
            "source": "_maerz-0_img",
            "target": 3553,
            "type": 5121
        }
    }
}