{
    "accessors": {
        "accessor_76": {
            "bufferView": "bufferView_97",
            "byteOffset": 0,
            "byteStride": 0,
            "componentType": 5123,
            "count": 18,
            "type": "SCALAR"
        },
        "accessor_79": {
            "bufferView": "bufferView_97",
            "byteOffset": 36,
            "byteStride": 0,
            "componentType": 5123,
            "count": 534,
            "type": "SCALAR"
        },
        "accessor_82": {
            "bufferView": "bufferView_97",
            "byteOffset": 1104,
            "byteStride": 0,
            "componentType": 5123,
            "count": 84,
            "type": "SCALAR"
        },
        "accessor_85": {
            "bufferView": "bufferView_97",
            "byteOffset": 1272,
            "byteStride": 0,
            "componentType": 5123,
            "count": 240,
            "type": "SCALAR"
        },
        "accessor_88": {
            "bufferView": "bufferView_97",
            "byteOffset": 1752,
            "byteStride": 0,
            "componentType": 5123,
            "count": 474,
            "type": "SCALAR"
        },
        "accessor_91": {
            "bufferView": "bufferView_97",
            "byteOffset": 2700,
            "byteStride": 0,
            "componentType": 5123,
            "count": 234,
            "type": "SCALAR"
        },
        "accessor_93": {
            "bufferView": "bufferView_98",
            "byteOffset": 0,
            "byteStride": 12,
            "componentType": 5126,
            "count": 910,
            "max": [
                2.16804,
                0.101731,
                14.0407
            ],
            "min": [
                -0.687189,
                -2.32576,
                0
            ],
            "type": "VEC3"
        },
        "accessor_95": {
            "bufferView": "bufferView_98",
            "byteOffset": 10920,
            "byteStride": 12,
            "componentType": 5126,
            "count": 910,
            "max": [
                0.862557,
                0.862756,
                0.999999
            ],
            "min": [
                -0.862557,
                -0.862802,
                -0.999999
            ],
            "type": "VEC3"
        }
    },
    "animations": {},
    "asset": {
        "generator": "collada2gltf@d78daf1e7950e6c22fe6bec1d07965e8a302e90d",
        "premultipliedAlpha": true,
        "profile": {
            "api": "WebGL",
            "version": "1.0.2"
        },
        "version": 1
    },
    "bufferViews": {
        "bufferView_97": {
            "buffer": "\\Daten\\test\\gltf_10\\Tiles\\0\\0\\118\\GMLID_2108434_31807_876",
            "byteLength": 3168,
            "byteOffset": 0,
            "target": 34963
        },
        "bufferView_98": {
            "buffer": "\\Daten\\test\\gltf_10\\Tiles\\0\\0\\118\\GMLID_2108434_31807_876",
            "byteLength": 21840,
            "byteOffset": 3168,
            "target": 34962
        }
    },
    "buffers": {
        "\\Daten\\test\\gltf_10\\Tiles\\0\\0\\118\\GMLID_2108434_31807_876": {
            "byteLength": 25008,
            "type": "arraybuffer",
            "uri": "data:application/octet-stream;base64,"
        }
    },
    "materials": {
        "default_ai_0.2_sh_0.2_tr_0.0_dc_r_0.8_g_0.8_b_0.8_sc_r_1.0_g_1.0_b_1.0_ec_r_0.0_g_0.0_b_0_eff": {
            "name": "default_ai_0.2_sh_0.2_tr_0.0_dc_r_0.8_g_0.8_b_0.8_sc_r_1.0_g_1.0_b_1.0_ec_r_0.0_g_0.0_b_0_mat",
            "technique": "technique0",
            "values": {
                "diffuse": [
                    0.8,
                    0.8,
                    0.8,
                    1
                ],
                "emission": [
                    0,
                    0,
                    0,
                    1
                ]
            }
        },
        "default_tr_0.0_dc_r_0.0_g_0.296875_b_0.0_sc_r_1.0_g_1.0_b_1.0_ec_r_0.0_g_0.0_b_0_eff": {
            "name": "default_tr_0.0_dc_r_0.0_g_0.296875_b_0.0_sc_r_1.0_g_1.0_b_1.0_ec_r_0.0_g_0.0_b_0_mat",
            "technique": "technique0",
            "values": {
                "diffuse": [
                    0,
                    0.296875,
                    0,
                    1
                ],
                "emission": [
                    0,
                    0,
                    0,
                    1
                ]
            }
        },
        "default_tr_0.0_dc_r_0.19921875_g_0.19921875_b_0.19921875_sc_r_1.0_g_1.0_b_1.0_ec_r_0.0_g_0.0_b_0_eff": {
            "name": "default_tr_0.0_dc_r_0.19921875_g_0.19921875_b_0.19921875_sc_r_1.0_g_1.0_b_1.0_ec_r_0.0_g_0.0_b_0_mat",
            "technique": "technique0",
            "values": {
                "diffuse": [
                    0.199219,
                    0.199219,
                    0.199219,
                    1
                ],
                "emission": [
                    0,
                    0,
                    0,
                    1
                ]
            }
        },
        "default_tr_0.0_dc_r_0.49609375_g_0.49609375_b_0.49609375_sc_r_1.0_g_1.0_b_1.0_ec_r_0.0_g_0.0_b_0_eff": {
            "name": "default_tr_0.0_dc_r_0.49609375_g_0.49609375_b_0.49609375_sc_r_1.0_g_1.0_b_1.0_ec_r_0.0_g_0.0_b_0_mat",
            "technique": "technique0",
            "values": {
                "diffuse": [
                    0.496094,
                    0.496094,
                    0.496094,
                    1
                ],
                "emission": [
                    0,
                    0,
                    0,
                    1
                ]
            }
        },
        "default_tr_0.0_dc_r_0.796875_g_0.0_b_0.0_sc_r_1.0_g_1.0_b_1.0_ec_r_0.0_g_0.0_b_0_eff": {
            "name": "default_tr_0.0_dc_r_0.796875_g_0.0_b_0.0_sc_r_1.0_g_1.0_b_1.0_ec_r_0.0_g_0.0_b_0_mat",
            "technique": "technique0",
            "values": {
                "diffuse": [
                    0.796875,
                    0,
                    0,
                    1
                ],
                "emission": [
                    0,
                    0,
                    0,
                    1
                ]
            }
        },
        "default_tr_0.0_dc_r_0.99609375_g_0.99609375_b_0.99609375_sc_r_1.0_g_1.0_b_1.0_ec_r_0.0_g_0.0_b_0_eff": {
            "name": "default_tr_0.0_dc_r_0.99609375_g_0.99609375_b_0.99609375_sc_r_1.0_g_1.0_b_1.0_ec_r_0.0_g_0.0_b_0_mat",
            "technique": "technique0",
            "values": {
                "diffuse": [
                    0.996094,
                    0.996094,
                    0.996094,
                    1
                ],
                "emission": [
                    0,
                    0,
                    0,
                    1
                ]
            }
        }
    },
    "meshes": {
        "geometry0": {
            "name": "geometry0",
            "primitives": [
                {
                    "attributes": {
                        "NORMAL": "accessor_95",
                        "POSITION": "accessor_93"
                    },
                    "indices": "accessor_76",
                    "material": "default_ai_0.2_sh_0.2_tr_0.0_dc_r_0.8_g_0.8_b_0.8_sc_r_1.0_g_1.0_b_1.0_ec_r_0.0_g_0.0_b_0_eff",
                    "mode": 4
                },
                {
                    "attributes": {
                        "NORMAL": "accessor_95",
                        "POSITION": "accessor_93"
                    },
                    "indices": "accessor_79",
                    "material": "default_tr_0.0_dc_r_0.796875_g_0.0_b_0.0_sc_r_1.0_g_1.0_b_1.0_ec_r_0.0_g_0.0_b_0_eff",
                    "mode": 4
                },
                {
                    "attributes": {
                        "NORMAL": "accessor_95",
                        "POSITION": "accessor_93"
                    },
                    "indices": "accessor_82",
                    "material": "default_tr_0.0_dc_r_0.0_g_0.296875_b_0.0_sc_r_1.0_g_1.0_b_1.0_ec_r_0.0_g_0.0_b_0_eff",
                    "mode": 4
                },
                {
                    "attributes": {
                        "NORMAL": "accessor_95",
                        "POSITION": "accessor_93"
                    },
                    "indices": "accessor_85",
                    "material": "default_tr_0.0_dc_r_0.19921875_g_0.19921875_b_0.19921875_sc_r_1.0_g_1.0_b_1.0_ec_r_0.0_g_0.0_b_0_eff",
                    "mode": 4
                },
                {
                    "attributes": {
                        "NORMAL": "accessor_95",
                        "POSITION": "accessor_93"
                    },
                    "indices": "accessor_88",
                    "material": "default_tr_0.0_dc_r_0.49609375_g_0.49609375_b_0.49609375_sc_r_1.0_g_1.0_b_1.0_ec_r_0.0_g_0.0_b_0_eff",
                    "mode": 4
                },
                {
                    "attributes": {
                        "NORMAL": "accessor_95",
                        "POSITION": "accessor_93"
                    },
                    "indices": "accessor_91",
                    "material": "default_tr_0.0_dc_r_0.99609375_g_0.99609375_b_0.99609375_sc_r_1.0_g_1.0_b_1.0_ec_r_0.0_g_0.0_b_0_eff",
                    "mode": 4
                }
            ]
        }
    },
    "nodes": {
        "node_0": {
            "children": [],
            "matrix": [
                1,
                0,
                0,
                0,
                0,
                1,
                0,
                0,
                0,
                0,
                1,
                0,
                0,
                0,
                0,
                1
            ],
            "meshes": [
                "geometry0"
            ],
            "name": ""
        },
        "node_1": {
            "children": [
                "node_0"
            ],
            "matrix": [
                1,
                0,
                0,
                0,
                0,
                0,
                -1,
                0,
                0,
                1,
                0,
                0,
                0,
                0,
                0,
                1
            ],
            "name": "Y_UP_Transform"
        }
    },
    "programs": {
        "program_0": {
            "attributes": [
                "a_normal",
                "a_position"
            ],
            "fragmentShader": "\\Daten\\test\\gltf_10\\Tiles\\0\\0\\118\\GMLID_2108434_31807_8760FS",
            "vertexShader": "\\Daten\\test\\gltf_10\\Tiles\\0\\0\\118\\GMLID_2108434_31807_8760VS"
        }
    },
    "scene": "defaultScene",
    "scenes": {
        "defaultScene": {
            "nodes": [
                "node_1"
            ]
        }
    },
    "shaders": {
        "\\Daten\\test\\gltf_10\\Tiles\\0\\0\\118\\GMLID_2108434_31807_8760FS": {
            "type": 35632,
            "uri": "data:text/plain;base64,"
        },
        "\\Daten\\test\\gltf_10\\Tiles\\0\\0\\118\\GMLID_2108434_31807_8760VS": {
            "type": 35633,
            "uri": "data:text/plain;base64,"
        }
    },
    "skins": {},
    "techniques": {
        "technique0": {
            "attributes": {
                "a_normal": "normal",
                "a_position": "position"
            },
            "parameters": {
                "diffuse": {
                    "type": 35666
                },
                "emission": {
                    "type": 35666
                },
                "modelViewMatrix": {
                    "semantic": "MODELVIEW",
                    "type": 35676
                },
                "normal": {
                    "semantic": "NORMAL",
                    "type": 35665
                },
                "normalMatrix": {
                    "semantic": "MODELVIEWINVERSETRANSPOSE",
                    "type": 35675
                },
                "position": {
                    "semantic": "POSITION",
                    "type": 35665
                },
                "projectionMatrix": {
                    "semantic": "PROJECTION",
                    "type": 35676
                }
            },
            "program": "program_0",
            "states": {
                "enable": [
                    2929
                ]
            },
            "uniforms": {
                "u_diffuse": "diffuse",
                "u_emission": "emission",
                "u_modelViewMatrix": "modelViewMatrix",
                "u_normalMatrix": "normalMatrix",
                "u_projectionMatrix": "projectionMatrix"
            }
        }
    }
}